<?xml version="1.0" encoding="UTF-8"?>
<svg version="1.1" xmlns="http://www.w3.org/2000/svg" width="500" height="500">
<path d="M0 0 C17.07142857 0 17.07142857 0 22 3 C22.886875 3.53625 23.77375 4.0725 24.6875 4.625 C31.76221245 11.89092089 31.64160785 20.93037981 31.75 30.5625 C31.77964844 31.85736328 31.80929688 33.15222656 31.83984375 34.48632812 C31.9100567 37.65761293 31.962996 40.82818312 32 44 C32.90363281 43.21238281 33.80726562 42.42476562 34.73828125 41.61328125 C40.75144217 36.61846402 47.51710128 35.39757043 55.234375 35.65625 C64.39189114 36.79447235 71.65642087 41.48003486 77.3125 48.66796875 C83.81938828 59.50480843 82.17693707 74.87709888 82.1875 87.0625 C82.18858765 87.73619629 82.18967529 88.40989258 82.1907959 89.10400391 C82.18903114 98.78663454 81.72443344 108.35054655 81 118 C74.4 117.67 67.8 117.34 61 117 C60.98541748 115.52200928 60.97083496 114.04401855 60.95581055 112.52124023 C60.89770157 107.02132352 60.8204687 101.5218108 60.73754883 96.0222168 C60.70435885 93.64500501 60.67630859 91.26771554 60.65356445 88.89038086 C60.61991014 85.46694942 60.56758699 82.04422604 60.51171875 78.62109375 C60.50532883 77.56353378 60.4989389 76.50597382 60.49235535 75.41636658 C60.3609015 68.771945 59.93684766 63.19848219 55.24609375 58.08984375 C52.11187701 56.56906728 49.53388579 56.56620479 46.0625 56.5625 C44.85722656 56.54316406 43.65195313 56.52382812 42.41015625 56.50390625 C38.39522892 57.0879793 36.81937298 58.13019101 34 61 C31.51630642 64.67380803 31.7206126 68.45336203 31.7265625 72.73046875 C31.70625933 74.27149145 31.6854083 75.81250701 31.6640625 77.35351562 C31.64156606 79.76479113 31.62502861 82.17578294 31.61914062 84.5871582 C31.54130045 103.52372592 31.54130045 103.52372592 24.875 111.5625 C23 113 23 113 21 113 C21 113.66 21 114.32 21 115 C13.5596451 118.1565142 8.6113678 118 0 118 C0 79.06 0 40.12 0 0 Z " fill="#E42DBA" transform="translate(76,178)"/>
<path d="M0 0 C0.33 11.22 0.66 22.44 1 34 C1.66 34 2.32 34 3 34 C3 33.34 3 32.68 3 32 C4.41328129 31.18162558 5.83078346 30.37053781 7.25 29.5625 C8.43335938 28.88380859 8.43335938 28.88380859 9.640625 28.19140625 C16.34746052 24.80467639 24.95929432 24.82424193 32.07421875 26.89453125 C34.43555595 27.8478243 36.72806279 28.85121008 39 30 C39 30.66 39 31.32 39 32 C39.598125 32.268125 40.19625 32.53625 40.8125 32.8125 C45.73750666 35.48607505 48.1113182 39.67239459 50.07763672 44.82250977 C51.66251907 50.6061925 51.24423548 56.64460429 51.1953125 62.58984375 C51.1924826 63.88950577 51.18965271 65.18916779 51.18673706 66.5282135 C51.17914655 69.96249255 51.15953823 73.39659907 51.1373291 76.83081055 C51.11677121 80.34356351 51.1077142 83.85634469 51.09765625 87.36914062 C51.07628734 94.24617123 51.04114328 101.12305954 51 108 C44.4 108 37.8 108 31 108 C30.970271 105.64669556 30.970271 105.64669556 30.93994141 103.24584961 C30.86371867 97.41056602 30.77502659 91.57552636 30.68261719 85.74047852 C30.64439635 83.21774114 30.60953158 80.69495055 30.578125 78.17211914 C30.53232515 74.54033423 30.4743543 70.90891348 30.4140625 67.27734375 C30.40251129 66.15416245 30.39096008 65.03098114 30.37905884 63.87376404 C30.27302189 58.21390098 29.90561054 53.34573904 28 48 C27.34 48 26.68 48 26 48 C26 47.34 26 46.68 26 46 C19.9678117 44.29434676 13.5544131 43.75320326 7.9375 46.875 C4.96827889 48.67797054 4.96827889 48.67797054 4 51 C3.34 51 2.68 51 2 51 C1.21423844 54.49387878 0.85562011 57.76287645 0.79467773 61.34106445 C0.77473251 62.3817659 0.75478729 63.42246735 0.73423767 64.4947052 C0.70916893 66.16215034 0.70916893 66.16215034 0.68359375 67.86328125 C0.66281265 69.01040085 0.64203156 70.15752045 0.62062073 71.33940125 C0.55533381 74.99704098 0.49633714 78.65475138 0.4375 82.3125 C0.39429496 84.79492913 0.35068003 87.27735116 0.30664062 89.75976562 C0.19967378 95.83976945 0.09786886 101.91984329 0 108 C-3.31248187 108.02888146 -6.62493167 108.04675799 -9.9375 108.0625 C-10.88302734 108.07087891 -11.82855469 108.07925781 -12.80273438 108.08789062 C-14.15141602 108.09272461 -14.15141602 108.09272461 -15.52734375 108.09765625 C-16.35999756 108.10289307 -17.19265137 108.10812988 -18.05053711 108.11352539 C-20 108 -20 108 -21 107 C-21.09543095 105.60856311 -21.12188575 104.21231633 -21.12025452 102.81761169 C-21.12162918 101.91592255 -21.12300385 101.0142334 -21.12442017 100.08522034 C-21.12082489 99.08828659 -21.11722961 98.09135284 -21.11352539 97.06420898 C-21.11367142 96.02043091 -21.11381744 94.97665283 -21.1139679 93.90124512 C-21.11326826 90.43284057 -21.10547353 86.96448897 -21.09765625 83.49609375 C-21.09579225 81.09855682 -21.09436826 78.7010195 -21.09336853 76.30348206 C-21.08954194 69.97904416 -21.07971046 63.65462906 -21.06866455 57.3302002 C-21.05845345 50.88224598 -21.05387156 44.43428809 -21.04882812 37.98632812 C-21.03808832 25.324209 -21.02120119 12.66210571 -21 0 C-18.06281233 -0.19461488 -15.12550068 -0.38097593 -12.1875 -0.5625 C-11.35412109 -0.61857422 -10.52074219 -0.67464844 -9.66210938 -0.73242188 C-8.85966797 -0.78076172 -8.05722656 -0.82910156 -7.23046875 -0.87890625 C-6.49207764 -0.9260376 -5.75368652 -0.97316895 -4.99291992 -1.02172852 C-3 -1 -3 -1 0 0 Z " fill="#4D1AEF" transform="translate(392,188)"/>
<path d="M0 0 C0.83563477 0.00418945 1.67126953 0.00837891 2.53222656 0.01269531 C11.78163727 0.18204564 18.81753841 2.39040465 26.625 7.3125 C26.625 7.9725 26.625 8.6325 26.625 9.3125 C27.285 9.3125 27.945 9.3125 28.625 9.3125 C35.44390573 17.62304136 34.90720715 27.59028291 34.8203125 37.87890625 C34.8174826 39.15354233 34.81465271 40.42817841 34.81173706 41.74143982 C34.8024899 45.1001054 34.78457871 48.4584896 34.7623291 51.81707764 C34.74172468 55.25628248 34.73270441 58.69551661 34.72265625 62.13476562 C34.70068355 68.8607636 34.66619907 75.58659343 34.625 82.3125 C28.355 82.3125 22.085 82.3125 15.625 82.3125 C15.13 78.3525 15.13 78.3525 14.625 74.3125 C13.820625 75.055 13.01625 75.7975 12.1875 76.5625 C5.30747551 82.22910923 -1.65707459 83.97373199 -10.4375 83.8125 C-11.7069043 83.83570313 -11.7069043 83.83570313 -13.00195312 83.859375 C-21.81213454 83.80503309 -28.09057861 80.30462272 -34.375 74.3125 C-39.0992029 67.79635806 -39.0737488 60.1000047 -38.375 52.3125 C-36.60672624 45.54350298 -32.19355488 41.84812087 -26.375 38.3125 C-18.82375261 34.5368763 -10.27516102 33.86605993 -2.01953125 32.8125 C6.21493844 31.76623659 6.21493844 31.76623659 13.625 28.3125 C13.94345551 25.20755874 13.61924641 23.29523923 12.625 20.3125 C9.69585835 19.14167122 9.69585835 19.14167122 6.625 18.3125 C5.965 17.9825 5.305 17.6525 4.625 17.3125 C-0.41875319 17.00898211 -5.46760374 17.003861 -10.375 18.3125 C-10.375 18.9725 -10.375 19.6325 -10.375 20.3125 C-11.365 20.9725 -12.355 21.6325 -13.375 22.3125 C-14.365 24.6225 -15.355 26.9325 -16.375 29.3125 C-22.645 29.3125 -28.915 29.3125 -35.375 29.3125 C-34.97839997 22.1736995 -33.93327293 17.51078188 -30.375 11.3125 C-29.715 11.3125 -29.055 11.3125 -28.375 11.3125 C-28.045 10.3225 -27.715 9.3325 -27.375 8.3125 C-25.37109375 6.77734375 -25.37109375 6.77734375 -22.8125 5.25 C-21.98621094 4.74339844 -21.15992188 4.23679688 -20.30859375 3.71484375 C-13.65131206 0.53246808 -7.26215621 -0.04976084 0 0 Z M10.4375 45.6875 C5.21801879 47.72367124 -0.1537886 48.18010958 -5.69140625 48.78515625 C-9.43091281 49.32050448 -12.81634747 50.04123847 -16.375 51.3125 C-18.50312092 54.50468138 -18.6736123 56.41669432 -18.8359375 60.1796875 C-18.12515477 63.4685635 -16.82532157 65.02710392 -14.375 67.3125 C-10.85600947 68.03059863 -10.85600947 68.03059863 -7 67.8125 C-5.71351563 67.8021875 -4.42703125 67.791875 -3.1015625 67.78125 C2.01972755 67.13706257 5.38606007 65.13845995 9.625 62.3125 C9.625 61.6525 9.625 60.9925 9.625 60.3125 C10.285 60.3125 10.945 60.3125 11.625 60.3125 C14.80192157 55.06367306 15.28197965 50.29761371 15.625 44.3125 C13.35249982 44.18046963 13.35249982 44.18046963 10.4375 45.6875 Z " fill="#9A17E3" transform="translate(203.375,213.6875)"/>
<path d="M0 0 C0.96808594 -0.01546875 1.93617188 -0.0309375 2.93359375 -0.046875 C11.07913291 -0.00314056 17.71004136 1.97336091 24.5 6.5 C24.5 7.16 24.5 7.82 24.5 8.5 C25.16 8.5 25.82 8.5 26.5 8.5 C27.33271303 9.79976979 28.13998584 11.11584056 28.9375 12.4375 C29.38996094 13.16839844 29.84242188 13.89929688 30.30859375 14.65234375 C31.5 17.5 31.5 17.5 32.5 26.5 C26.23 26.5 19.96 26.5 13.5 26.5 C10.5 20.5 10.5 20.5 10.5 18.5 C6.79553447 17.26517816 3.3556992 17.35441798 -0.5 17.375 C-1.58667969 17.36919922 -1.58667969 17.36919922 -2.6953125 17.36328125 C-5.89282879 17.36918073 -8.44582607 17.48194202 -11.5 18.5 C-11.603125 19.758125 -11.70625 21.01625 -11.8125 22.3125 C-11.87050781 23.02019531 -11.92851562 23.72789062 -11.98828125 24.45703125 C-11.66892851 26.66886111 -11.66892851 26.66886111 -9.64453125 28.11328125 C-5.18662097 30.079192 -0.63691729 30.91775663 4.125 31.875 C12.13925014 33.57525136 19.31160768 35.45867896 26.5 39.5 C26.5 40.16 26.5 40.82 26.5 41.5 C27.16 41.5 27.82 41.5 28.5 41.5 C33.75238377 48.22961671 35.04650925 54.37107887 34.125 62.69921875 C33.13309228 67.14420522 31.01401951 70.74288597 28.5 74.5 C27.84 74.5 27.18 74.5 26.5 74.5 C26.5 75.16 26.5 75.82 26.5 76.5 C24.99609375 77.71875 24.99609375 77.71875 22.9375 79 C22.27621094 79.4228125 21.61492187 79.845625 20.93359375 80.28125 C10.18922941 85.66205525 -5.91948064 85.3266439 -17.3125 82 C-24.69273832 78.96483705 -30.56579985 74.14814532 -34 66.875 C-35.29152464 63.46631854 -36.22597067 60.15372436 -36.5 56.5 C-35.5 55.5 -35.5 55.5 -33.64233398 55.38647461 C-32.45619507 55.39432983 -32.45619507 55.39432983 -31.24609375 55.40234375 C-29.96508789 55.40717773 -29.96508789 55.40717773 -28.65820312 55.41210938 C-27.76037109 55.42048828 -26.86253906 55.42886719 -25.9375 55.4375 C-25.03580078 55.44201172 -24.13410156 55.44652344 -23.20507812 55.45117188 C-20.96998686 55.46299775 -18.73502563 55.4794778 -16.5 55.5 C-16.24605469 56.05429687 -15.99210937 56.60859375 -15.73046875 57.1796875 C-15.38628906 57.90414062 -15.04210937 58.62859375 -14.6875 59.375 C-14.35105469 60.09429687 -14.01460938 60.81359375 -13.66796875 61.5546875 C-12.17527569 64.04084517 -10.43878289 65.18774824 -7.69140625 66.1015625 C-0.63393047 67.38473991 6.37757056 67.63677665 12.5 63.5 C13.83648017 62.38898816 13.83648017 62.38898816 13.625 59.5625 C13.71325664 56.58454272 13.71325664 56.58454272 12.5 54.5 C7.91686896 52.13982473 2.83195942 51.53830332 -2.1875 50.625 C-22.64929606 46.67723282 -22.64929606 46.67723282 -29.5 38.5 C-33.57463119 31.78884275 -33.36860769 25.13719215 -32.5 17.5 C-30.24130321 11.12931675 -25.34104415 6.46392245 -19.39331055 3.42285156 C-12.80406829 0.56695036 -7.13920561 -0.11407519 0 0 Z " fill="#6219EB" transform="translate(330.5,213.5)"/>
<path d="M0 0 C0 6.27 0 12.54 0 19 C-7.625 19.875 -7.625 19.875 -9.99072266 20.13623047 C-14.21255976 20.6431939 -17.99312463 21.49584174 -22 23 C-22 23.66 -22 24.32 -22 25 C-22.66 25 -23.32 25 -24 25 C-24.309375 25.969375 -24.61875 26.93875 -24.9375 27.9375 C-26 31 -26 31 -27 32 C-27.12263388 33.56448383 -27.17779522 35.13432772 -27.20532227 36.70336914 C-27.22526749 37.70433121 -27.24521271 38.70529327 -27.26576233 39.73658752 C-27.29083107 41.36937904 -27.29083107 41.36937904 -27.31640625 43.03515625 C-27.33718735 44.14354355 -27.35796844 45.25193085 -27.37937927 46.39390564 C-27.44499623 49.95003808 -27.50381596 53.50624703 -27.5625 57.0625 C-27.60567368 59.46680493 -27.64928758 61.87110199 -27.69335938 64.27539062 C-27.80068997 70.18351447 -27.90192279 76.09171559 -28 82 C-34.27 82 -40.54 82 -47 82 C-47.98279603 78.0688159 -48.1410659 74.59074991 -48.12939453 70.58520508 C-48.13114685 69.8449559 -48.13289917 69.10470673 -48.13470459 68.34202576 C-48.13909752 65.90117025 -48.13619503 63.46038746 -48.1328125 61.01953125 C-48.13348606 59.3237049 -48.13445652 57.62787864 -48.13571167 55.93205261 C-48.13718499 52.3821826 -48.13504501 48.83233778 -48.13037109 45.2824707 C-48.12466097 40.72242394 -48.12796322 36.16243587 -48.13394356 31.60239124 C-48.13754791 28.10324151 -48.13641139 24.60410582 -48.13381577 21.10495567 C-48.13314682 19.42275676 -48.13397379 17.74055659 -48.13629532 16.05835915 C-48.1388212 13.71440853 -48.1349828 11.37055469 -48.12939453 9.02661133 C-48.13141876 8.32583466 -48.13344299 7.62505798 -48.13552856 6.90304565 C-48.11426552 2.11426552 -48.11426552 2.11426552 -47 1 C-45.58429877 0.91348389 -44.164405 0.89295096 -42.74609375 0.90234375 C-41.46508789 0.90717773 -41.46508789 0.90717773 -40.15820312 0.91210938 C-39.26037109 0.92048828 -38.36253906 0.92886719 -37.4375 0.9375 C-36.53580078 0.94201172 -35.63410156 0.94652344 -34.70507812 0.95117188 C-32.46998686 0.96299775 -30.23502563 0.9794778 -28 1 C-27.67 3.31 -27.34 5.62 -27 8 C-26.34 8 -25.68 8 -25 8 C-25 7.34 -25 6.68 -25 6 C-23.3970947 5.18501438 -21.79262722 4.37310073 -20.1875 3.5625 C-19.29417969 3.11003906 -18.40085937 2.65757812 -17.48046875 2.19140625 C-11.61124656 -0.62766897 -6.43900586 -0.06923662 0 0 Z " fill="#8818E4" transform="translate(295,214)"/>
<path d="M0 0 C0.33 0 0.66 0 1 0 C1.85453433 3.69576905 2.12178203 7.1020461 2.11352539 10.8918457 C2.11341209 12.63308464 2.11341209 12.63308464 2.11329651 14.40950012 C2.10813522 15.65237289 2.10297394 16.89524567 2.09765625 18.17578125 C2.0962413 19.45607712 2.09482635 20.73637299 2.09336853 22.0554657 C2.08956397 25.4469704 2.07975143 28.83843177 2.06866455 32.22991943 C2.05840597 35.69559137 2.05386141 39.16127036 2.04882812 42.62695312 C2.03780755 49.4179899 2.02054722 56.20898563 2 63 C-4.27 63 -10.54 63 -17 63 C-17.495 59.04 -17.495 59.04 -18 55 C-19.2065625 56.11375 -19.2065625 56.11375 -20.4375 57.25 C-27.31752449 62.91660923 -34.28207459 64.66123199 -43.0625 64.5 C-44.3319043 64.52320313 -44.3319043 64.52320313 -45.62695312 64.546875 C-54.43713454 64.49253309 -60.71557861 60.99212272 -67 55 C-71.7242029 48.48385806 -71.6987488 40.7875047 -71 33 C-69.23245924 26.23380893 -64.81905116 22.53092126 -59 19 C-55.48256256 17.24128128 -54.03537742 17 -50 17 C-48.6728739 20.9813783 -48.93084087 24.85045227 -49 29 C-48.27296875 28.855625 -47.5459375 28.71125 -46.796875 28.5625 C-39.44651204 27.20550991 -32.46612603 26.76171938 -25 27 C-27.83700862 29.83700862 -30.23825323 29.59857072 -34.1875 30.0625 C-35.48042969 30.21847656 -36.77335937 30.37445313 -38.10546875 30.53515625 C-39.39066406 30.68855469 -40.67585938 30.84195312 -42 31 C-44.335511 31.31997113 -46.66754937 31.65814926 -49 32 C-50.50304913 36.50914738 -51.00004222 40.89659015 -48.94140625 45.2265625 C-46.00214286 47.91152343 -43.59388397 47.49545822 -39.6875 47.4375 C-38.39199219 47.43621094 -37.09648437 47.43492187 -35.76171875 47.43359375 C-31.8292836 46.98032241 -29.41421475 45.93619971 -26 44 C-25.01 43.67 -24.02 43.34 -23 43 C-23 42.34 -23 41.68 -23 41 C-22.34 41 -21.68 41 -21 41 C-20.34 39.02 -19.68 37.04 -19 35 C-18.01 35 -17.02 35 -16 35 C-15 38 -15 38 -15.9375 40.1875 C-16.288125 40.785625 -16.63875 41.38375 -17 42 C-18.65 42 -20.3 42 -22 42 C-21.505 45.96 -21.505 45.96 -21 50 C-18.92446352 50.5534764 -17.15634036 51 -15 51 C-15 54.3 -15 57.6 -15 61 C-10.05 61 -5.1 61 0 61 C-0.03029297 59.89301758 -0.06058594 58.78603516 -0.09179688 57.64550781 C-0.20633378 53.4333384 -0.31726266 49.22107962 -0.42724609 45.00878906 C-0.47480506 43.20537851 -0.52326948 41.40199156 -0.57275391 39.59863281 C-0.84524305 29.64443744 -1.05380167 19.6925061 -1.09375 9.734375 C-1.1002356 8.8711261 -1.10672119 8.0078772 -1.11340332 7.11846924 C-1.11496422 5.07862981 -1.06306319 3.03886497 -1 1 C-0.67 0.67 -0.34 0.34 0 0 Z " fill="#AF18E0" transform="translate(236,233)"/>
<path d="M0 0 C6.75 -0.125 6.75 -0.125 9 1 C12.21110497 1.27941936 15.42221923 1.44682523 18.640625 1.62109375 C22.03642895 2.00410885 24.84428444 2.6975671 28 4 C28.495 4.99 28.495 4.99 29 6 C29.99 6 30.98 6 32 6 C32 6.99 32 7.98 32 9 C32.66 9 33.32 9 34 9 C33.125 16.75 33.125 16.75 32 19 C32.639375 19.103125 33.27875 19.20625 33.9375 19.3125 C34.618125 19.539375 35.29875 19.76625 36 20 C36.495 21.485 36.495 21.485 37 23 C38.32 23 39.64 23 41 23 C41.495 21.515 41.495 21.515 42 20 C42.66 20 43.32 20 44 20 C42.125 24.75 42.125 24.75 41 27 C40.34 27 39.68 27 39 27 C39 27.66 39 28.32 39 29 C37.49609375 30.21875 37.49609375 30.21875 35.4375 31.5 C34.77621094 31.9228125 34.11492187 32.345625 33.43359375 32.78125 C22.68922941 38.16205525 6.58051936 37.8266439 -4.8125 34.5 C-12.19273832 31.46483705 -18.06579985 26.64814532 -21.5 19.375 C-22.79152464 15.96631854 -23.72597067 12.65372436 -24 9 C-23 8 -23 8 -21.14233398 7.88647461 C-19.95619507 7.89432983 -19.95619507 7.89432983 -18.74609375 7.90234375 C-17.46508789 7.90717773 -17.46508789 7.90717773 -16.15820312 7.91210938 C-15.26037109 7.92048828 -14.36253906 7.92886719 -13.4375 7.9375 C-12.53580078 7.94201172 -11.63410156 7.94652344 -10.70507812 7.95117188 C-8.46998686 7.96299775 -6.23502563 7.9794778 -4 8 C-3.74605469 8.55429687 -3.49210937 9.10859375 -3.23046875 9.6796875 C-2.88628906 10.40414063 -2.54210937 11.12859375 -2.1875 11.875 C-1.85105469 12.59429687 -1.51460938 13.31359375 -1.16796875 14.0546875 C0.32472431 16.54084517 2.06121711 17.68774824 4.80859375 18.6015625 C11.86606953 19.88473991 18.87757056 20.13677665 25 16 C26.33648017 14.88898816 26.33648017 14.88898816 26.125 12.0625 C26.21325664 9.08454272 26.21325664 9.08454272 25 7 C20.26130985 4.54862057 14.87944936 3.86568998 9.6875 2.875 C8.75615234 2.69324219 7.82480469 2.51148438 6.86523438 2.32421875 C4.57763507 1.87843017 2.28925909 1.43717053 0 1 C0 0.67 0 0.34 0 0 Z " fill="#5B18ED" transform="translate(318,261)"/>
<path d="M0 0 C0.96808594 -0.01546875 1.93617188 -0.0309375 2.93359375 -0.046875 C11.07913291 -0.00314056 17.71004136 1.97336091 24.5 6.5 C24.5 7.16 24.5 7.82 24.5 8.5 C25.16 8.5 25.82 8.5 26.5 8.5 C27.33271303 9.79976979 28.13998584 11.11584056 28.9375 12.4375 C29.61619141 13.53384766 29.61619141 13.53384766 30.30859375 14.65234375 C31.5 17.5 31.5 17.5 32.5 26.5 C26.23 26.5 19.96 26.5 13.5 26.5 C10.5 20.5 10.5 20.5 10.5 18.5 C6.79553447 17.26517816 3.3556992 17.35441798 -0.5 17.375 C-1.58667969 17.36919922 -1.58667969 17.36919922 -2.6953125 17.36328125 C-5.89282879 17.36918073 -8.44582607 17.48194202 -11.5 18.5 C-11.603125 19.758125 -11.70625 21.01625 -11.8125 22.3125 C-11.87050781 23.02019531 -11.92851562 23.72789062 -11.98828125 24.45703125 C-11.67186716 26.69696389 -11.67186716 26.69696389 -9.5 28.125 C-5.79965371 29.82099205 -2.14342931 30.7789443 1.8125 31.6875 C2.55306641 31.86474609 3.29363281 32.04199219 4.05664062 32.22460938 C5.86930342 32.65730953 7.68442027 33.07970716 9.5 33.5 C5.83890489 34.72036504 2.65655883 34.44694905 -1.125 34.1875 C-1.81851562 34.15205078 -2.51203125 34.11660156 -3.2265625 34.08007812 C-4.99120457 33.96461815 -6.74800497 33.74042891 -8.5 33.5 C-8.83 32.84 -9.16 32.18 -9.5 31.5 C-12.52934491 30.84227572 -12.52934491 30.84227572 -15.5 30.5 C-15.4278125 29.59378906 -15.355625 28.68757813 -15.28125 27.75390625 C-14.76514231 20.9799928 -14.38287853 14.29304544 -14.5 7.5 C-14.83 8.16 -15.16 8.82 -15.5 9.5 C-19.31984796 10.27811718 -21.76840331 10.74386556 -25.5 9.5 C-25.644375 10.4075 -25.78875 11.315 -25.9375 12.25 C-26.123125 13.3225 -26.30875 14.395 -26.5 15.5 C-26.62375 16.263125 -26.7475 17.02625 -26.875 17.8125 C-27.08125 18.369375 -27.2875 18.92625 -27.5 19.5 C-28.49 19.83 -29.48 20.16 -30.5 20.5 C-30.83 24.46 -31.16 28.42 -31.5 32.5 C-31.83 32.5 -32.16 32.5 -32.5 32.5 C-33.42027415 16.7939879 -33.42027415 16.7939879 -28.97265625 11.0703125 C-20.80972916 2.36607725 -11.77332868 -0.18812243 0 0 Z " fill="#661BE1" transform="translate(330.5,213.5)"/>
<path d="M0 0 C0 6.27 0 12.54 0 19 C-7.625 19.875 -7.625 19.875 -9.99072266 20.13623047 C-14.21255976 20.6431939 -17.99312463 21.49584174 -22 23 C-22 23.66 -22 24.32 -22 25 C-22.66 25 -23.32 25 -24 25 C-24.309375 25.969375 -24.61875 26.93875 -24.9375 27.9375 C-26 31 -26 31 -27 32 C-27.12263388 33.56448383 -27.17779522 35.13432772 -27.20532227 36.70336914 C-27.22526749 37.70433121 -27.24521271 38.70529327 -27.26576233 39.73658752 C-27.29083107 41.36937904 -27.29083107 41.36937904 -27.31640625 43.03515625 C-27.33718735 44.14354355 -27.35796844 45.25193085 -27.37937927 46.39390564 C-27.44499623 49.95003808 -27.50381596 53.50624703 -27.5625 57.0625 C-27.60567368 59.46680493 -27.64928758 61.87110199 -27.69335938 64.27539062 C-27.80068997 70.18351447 -27.90192279 76.09171559 -28 82 C-34.27 82 -40.54 82 -47 82 C-47.98279603 78.0688159 -48.1410659 74.59074991 -48.12939453 70.58520508 C-48.13114685 69.8449559 -48.13289917 69.10470673 -48.13470459 68.34202576 C-48.13909752 65.90117025 -48.13619503 63.46038746 -48.1328125 61.01953125 C-48.13348606 59.3237049 -48.13445652 57.62787864 -48.13571167 55.93205261 C-48.13718499 52.3821826 -48.13504501 48.83233778 -48.13037109 45.2824707 C-48.12466097 40.72242394 -48.12796322 36.16243587 -48.13394356 31.60239124 C-48.13754791 28.10324151 -48.13641139 24.60410582 -48.13381577 21.10495567 C-48.13314682 19.42275676 -48.13397379 17.74055659 -48.13629532 16.05835915 C-48.1388212 13.71440853 -48.1349828 11.37055469 -48.12939453 9.02661133 C-48.13141876 8.32583466 -48.13344299 7.62505798 -48.13552856 6.90304565 C-48.11426552 2.11426552 -48.11426552 2.11426552 -47 1 C-45.58429877 0.91348389 -44.164405 0.89295096 -42.74609375 0.90234375 C-41.46508789 0.90717773 -41.46508789 0.90717773 -40.15820312 0.91210938 C-39.26037109 0.92048828 -38.36253906 0.92886719 -37.4375 0.9375 C-36.53580078 0.94201172 -35.63410156 0.94652344 -34.70507812 0.95117188 C-32.46998686 0.96299775 -30.23502563 0.9794778 -28 1 C-27.67 3.31 -27.34 5.62 -27 8 C-26.34 8 -25.68 8 -25 8 C-25 7.34 -25 6.68 -25 6 C-23.3970947 5.18501438 -21.79262722 4.37310073 -20.1875 3.5625 C-19.29417969 3.11003906 -18.40085937 2.65757812 -17.48046875 2.19140625 C-11.61124656 -0.62766897 -6.43900586 -0.06923662 0 0 Z M-46 3 C-46 28.08 -46 53.16 -46 79 C-40.39 79.33 -34.78 79.66 -29 80 C-29.02094727 78.50106201 -29.04189453 77.00212402 -29.06347656 75.45776367 C-29.13577784 69.90610272 -29.18176422 64.35448352 -29.21972656 58.80249023 C-29.23986447 56.3977967 -29.2671767 53.99315225 -29.30175781 51.58862305 C-29.35017877 48.13578186 -29.37294711 44.68358702 -29.390625 41.23046875 C-29.41127014 40.15226364 -29.43191528 39.07405853 -29.45318604 37.96318054 C-29.45348816 36.96236954 -29.45379028 35.96155853 -29.45410156 34.93041992 C-29.46298401 34.04883713 -29.47186646 33.16725433 -29.48101807 32.25895691 C-28.84115478 29.25403114 -27.44943526 28.71460092 -25 27 C-24.66602213 23.87413125 -24.66602213 23.87413125 -25 21 C-23.35 21 -21.7 21 -20 21 C-20 20.01 -20 19.02 -20 18 C-20 16.68 -20 15.36 -20 14 C-22.97 13.34 -25.94 12.68 -29 12 C-29.33 9.03 -29.66 6.06 -30 3 C-35.28 3 -40.56 3 -46 3 Z " fill="#861BE1" transform="translate(295,214)"/>
<path d="M0 0 C0.495 0.495 0.495 0.495 1 1 C2.34747084 1.23075082 3.70377565 1.41153063 5.0625 1.5625 C6.361875 1.706875 7.66125 1.85125 9 2 C9.495 3.485 9.495 3.485 10 5 C8.68 5 7.36 5 6 5 C6.495 6.485 6.495 6.485 7 8 C6.01 8.33 5.02 8.66 4 9 C4.66 10.32 5.32 11.64 6 13 C5.195625 12.979375 4.39125 12.95875 3.5625 12.9375 C1.06645115 12.70366379 1.06645115 12.70366379 0 14 C-2.53049402 14.07313567 -5.03304837 14.09247527 -7.5625 14.0625 C-8.27341797 14.05798828 -8.98433594 14.05347656 -9.71679688 14.04882812 C-11.47790013 14.03700864 -13.23896036 14.01907263 -15 14 C-15 14.66 -15 15.32 -15 16 C-16.65 16 -18.3 16 -20 16 C-20.12375 17.2375 -20.2475 18.475 -20.375 19.75 C-20.7206728 23.20672799 -21.34445298 24.68890596 -23 28 C-29.27 28 -35.54 28 -42 28 C-41.60339997 20.8611995 -40.55827293 16.19828188 -37 10 C-36.34 10 -35.68 10 -35 10 C-34.67 9.01 -34.34 8.02 -34 7 C-32.35 7.33 -30.7 7.66 -29 8 C-29 7.34 -29 6.68 -29 6 C-28.030625 5.71125 -27.06125 5.4225 -26.0625 5.125 C-22.89335797 4.35785318 -22.89335797 4.35785318 -22 2 C-14.95191799 -0.1066223 -7.31103854 -0.58002704 0 0 Z " fill="#BD1DD4" transform="translate(210,215)"/>
<path d="M0 0 C0 0.99 0 1.98 0 3 C0.66 3.33 1.32 3.66 2 4 C1.34 4.99 0.68 5.98 0 7 C-0.28875 7.94875 -0.5775 8.8975 -0.875 9.875 C-2 13 -2 13 -3.9375 15.25 C-6.85234227 19.13645637 -7.80557398 23.33992877 -9 28 C-18.90857976 30.29344655 -28.87929173 30.60146434 -39 31 C-36.18026694 28.18026694 -33.86764077 28.44061638 -29.9375 28 C-19.4686033 27.03517147 -19.4686033 27.03517147 -10 23 C-9.68154449 19.89505874 -10.00575359 17.98273923 -11 15 C-13.92914165 13.82917122 -13.92914165 13.82917122 -17 13 C-17.66 12.67 -18.32 12.34 -19 12 C-24.04375319 11.69648211 -29.09260374 11.691361 -34 13 C-34 13.66 -34 14.32 -34 15 C-34.99 15.33 -35.98 15.66 -37 16 C-37 14.68 -37 13.36 -37 12 C-35.35 12 -33.7 12 -32 12 C-32 11.34 -32 10.68 -32 10 C-30.46279297 9.90912109 -30.46279297 9.90912109 -28.89453125 9.81640625 C-27.53384305 9.73194974 -26.17316657 9.64730433 -24.8125 9.5625 C-24.13896484 9.52318359 -23.46542969 9.48386719 -22.77148438 9.44335938 C-19.10300898 9.21072435 -15.58305794 8.82792989 -12 8 C-12.495 6.515 -12.495 6.515 -13 5 C-12.34 4.34 -11.68 3.68 -11 3 C-11 2.34 -11 1.68 -11 1 C-10.01 0.67 -9.02 0.34 -8 0 C-8 -0.66 -8 -1.32 -8 -2 C-9.299375 -1.979375 -10.59875 -1.95875 -11.9375 -1.9375 C-13.29165633 -1.91600546 -14.64756083 -1.92851801 -16 -2 C-16.495 -2.495 -16.495 -2.495 -17 -3 C-18.78940972 -3.09908783 -20.58285508 -3.12970379 -22.375 -3.125 C-23.35210937 -3.12757813 -24.32921875 -3.13015625 -25.3359375 -3.1328125 C-28.10464416 -3.11434035 -28.10464416 -3.11434035 -31 -2 C-32.39439664 -1.93334624 -33.79169875 -1.91461801 -35.1875 -1.9375 C-37.0746875 -1.9684375 -37.0746875 -1.9684375 -39 -2 C-39.33 -1.01 -39.66 -0.02 -40 1 C-41.98 1.33 -43.96 1.66 -46 2 C-46 2.66 -46 3.32 -46 4 C-46.99 4 -47.98 4 -49 4 C-48.00711401 1.46734428 -47.3570558 0.22096774 -45.01171875 -1.23046875 C-44.24472656 -1.54628906 -43.47773438 -1.86210937 -42.6875 -2.1875 C-41.92824219 -2.51105469 -41.16898438 -2.83460938 -40.38671875 -3.16796875 C-27.62154319 -7.61802177 -11.85705602 -6.10094605 0 0 Z " fill="#A819E0" transform="translate(227,219)"/>
<path d="M0 0 C17.28571429 0 17.28571429 0 24.75 4.75 C28.50916551 8.50916551 29.8561126 12.46200356 30.34057617 17.64038086 C30.32486572 18.90245361 30.30915527 20.16452637 30.29296875 21.46484375 C30.28872391 22.14301651 30.28447906 22.82118927 30.28010559 23.51991272 C30.26347941 25.65953402 30.22586174 27.79816947 30.1875 29.9375 C30.17243222 31.39907482 30.1587475 32.86066458 30.14648438 34.32226562 C30.11362977 37.88182397 30.06196241 41.44081556 30 45 C29.67 45 29.34 45 29 45 C28.98018066 44.20827393 28.96036133 43.41654785 28.93994141 42.60083008 C28.8445284 39.0043924 28.73491409 35.40852249 28.625 31.8125 C28.5940625 30.56662109 28.563125 29.32074219 28.53125 28.03710938 C28.49257812 26.83505859 28.45390625 25.63300781 28.4140625 24.39453125 C28.3826416 23.28956299 28.3512207 22.18459473 28.31884766 21.04614258 C28.00122818 18.01173354 27.27753965 15.75455478 26 13 C25.01 13.495 25.01 13.495 24 14 C22.4375 12.75 22.4375 12.75 21 11 C21.3125 8.8125 21.3125 8.8125 22 7 C20.03533587 5.93224776 18.03144641 4.93446535 16 4 C15.01 4.495 15.01 4.495 14 5 C13.071875 4.835 12.14375 4.67 11.1875 4.5 C8.01924674 4.0030191 6.07636796 4.28966716 3 5 C3.00523682 5.62527588 3.01047363 6.25055176 3.01586914 6.89477539 C3.10661433 19.61173684 2.99840213 32.29203241 2.5 45 C1.95213672 59.56188086 1.88640225 74.11645768 1.875 88.6875 C1.87250244 89.81373779 1.87000488 90.93997559 1.86743164 92.1003418 C1.86155183 95.32083231 1.86302401 98.54122723 1.8671875 101.76171875 C1.86520355 102.73638596 1.8632196 103.71105316 1.86117554 104.71525574 C1.86428741 105.6170607 1.86739929 106.51886566 1.87060547 107.44799805 C1.87140106 108.23385788 1.87219666 109.01971771 1.87301636 109.82939148 C1.95224096 112.33444471 1.95224096 112.33444471 3 116 C7.95 115.67 12.9 115.34 18 115 C17.67 115.66 17.34 116.32 17 117 C12 118 12 118 0 118 C0 79.06 0 40.12 0 0 Z " fill="#C44298" transform="translate(76,178)"/>
<path d="M0 0 C2 1 2 1 3.11279297 3.71313477 C4.62562415 9.54914708 4.24453909 15.60770794 4.1953125 21.58984375 C4.1924826 22.88950577 4.18965271 24.18916779 4.18673706 25.5282135 C4.17914655 28.96249255 4.15953823 32.39659907 4.1373291 35.83081055 C4.11677121 39.34356351 4.1077142 42.85634469 4.09765625 46.36914062 C4.07628734 53.24617123 4.04114328 60.12305954 4 67 C-2.6 67 -9.2 67 -16 67 C-16.01981934 65.43113037 -16.03963867 63.86226074 -16.06005859 62.24584961 C-16.13628133 56.41056602 -16.22497341 50.57552636 -16.31738281 44.74047852 C-16.35560365 42.21774114 -16.39046842 39.69495055 -16.421875 37.17211914 C-16.46767485 33.54033423 -16.5256457 29.90891348 -16.5859375 26.27734375 C-16.59748871 25.15416245 -16.60903992 24.03098114 -16.62094116 22.87376404 C-16.72697811 17.21390098 -17.09438946 12.34573904 -19 7 C-19.66 7 -20.32 7 -21 7 C-21 6.34 -21 5.68 -21 5 C-27.3825425 3.19942035 -33.62041651 2.97633963 -39.625 6 C-40.73875 6.66 -41.8525 7.32 -43 8 C-43.33 6.35 -43.66 4.7 -44 3 C-36.02300907 1.48057316 -26.92485808 0.40344756 -19.3125 3.5 C-13.32710099 9.97070163 -13.58704818 17.61305523 -13.70703125 25.9375 C-13.71127609 27.05817871 -13.71552094 28.17885742 -13.71989441 29.33349609 C-13.73659689 32.88924874 -13.77423432 36.44442059 -13.8125 40 C-13.82755769 42.42056469 -13.8412442 44.84113833 -13.85351562 47.26171875 C-13.88647294 53.17470065 -13.93819759 59.08725208 -14 65 C-8.72 65 -3.44 65 2 65 C1.89152788 57.70620929 1.77931101 50.41249871 1.66066074 43.11886597 C1.60570192 39.73145542 1.55232816 36.34403593 1.50268555 32.95654297 C1.44468869 29.05428511 1.3810796 25.15215223 1.31640625 21.25 C1.29969376 20.04448486 1.28298126 18.83896973 1.26576233 17.59692383 C1.16180087 11.65182942 0.89038631 5.88098574 0 0 Z " fill="#3921BB" transform="translate(439,229)"/>
<path d="M0 0 C0.33 0 0.66 0 1 0 C1.85453433 3.69576905 2.12178203 7.1020461 2.11352539 10.8918457 C2.11344986 12.05267166 2.11337433 13.21349762 2.11329651 14.40950012 C2.10813522 15.65237289 2.10297394 16.89524567 2.09765625 18.17578125 C2.0962413 19.45607712 2.09482635 20.73637299 2.09336853 22.0554657 C2.08956397 25.4469704 2.07975143 28.83843177 2.06866455 32.22991943 C2.05840597 35.69559137 2.05386141 39.16127036 2.04882812 42.62695312 C2.03780755 49.4179899 2.02054722 56.20898563 2 63 C-4.27 63 -10.54 63 -17 63 C-17.33 60.36 -17.66 57.72 -18 55 C-18.94875 55.825 -19.8975 56.65 -20.875 57.5 C-23.75 60 -23.75 60 -26 60 C-26 59.01 -26 58.02 -26 57 C-26.66 57 -27.32 57 -28 57 C-30.125 50.25 -30.125 50.25 -29 48 C-29.99 47.67 -30.98 47.34 -32 47 C-29.0173094 45.47551369 -26.181798 44.06059933 -23 43 C-23 42.34 -23 41.68 -23 41 C-22.34 41 -21.68 41 -21 41 C-20.34 39.02 -19.68 37.04 -19 35 C-18.01 35 -17.02 35 -16 35 C-15 38 -15 38 -15.9375 40.1875 C-16.288125 40.785625 -16.63875 41.38375 -17 42 C-18.65 42 -20.3 42 -22 42 C-21.67 44.64 -21.34 47.28 -21 50 C-18.92446352 50.5534764 -17.15634036 51 -15 51 C-15 54.3 -15 57.6 -15 61 C-10.05 61 -5.1 61 0 61 C-0.03029297 59.89301758 -0.06058594 58.78603516 -0.09179688 57.64550781 C-0.20633378 53.4333384 -0.31726266 49.22107962 -0.42724609 45.00878906 C-0.47480506 43.20537851 -0.52326948 41.40199156 -0.57275391 39.59863281 C-0.84524305 29.64443744 -1.05380167 19.6925061 -1.09375 9.734375 C-1.1002356 8.8711261 -1.10672119 8.0078772 -1.11340332 7.11846924 C-1.11496422 5.07862981 -1.06306319 3.03886497 -1 1 C-0.67 0.67 -0.34 0.34 0 0 Z " fill="#9C16E6" transform="translate(236,233)"/>
<path d="M0 0 C6.27 0 12.54 0 19 0 C19 2.31 19 4.62 19 7 C18.67 7 18.34 7 18 7 C18 5.02 18 3.04 18 1 C12.72 1 7.44 1 2 1 C2 26.08 2 51.16 2 77 C4.97 77 7.94 77 11 77 C13.69907097 77.22458837 16.3171545 77.60976793 19 78 C18.98081009 77.38025803 18.96162018 76.76051605 18.94184875 76.12199402 C18.74546115 69.68258268 18.57045407 63.24284415 18.40795898 56.80249023 C18.34445748 54.39771605 18.27547064 51.9930803 18.20092773 49.58862305 C18.09483928 46.13612039 18.0083676 42.68360348 17.92578125 39.23046875 C17.88842361 38.15226364 17.85106598 37.07405853 17.81257629 35.96318054 C17.78220528 34.46196404 17.78220528 34.46196404 17.7512207 32.93041992 C17.72679398 32.04883713 17.70236725 31.16725433 17.67720032 30.25895691 C18.06584892 27.53918829 18.89389647 26.69096614 21 25 C21.66 25.33 22.32 25.66 23 26 C22.67657623 26.55596863 22.35315247 27.11193726 22.01992798 27.68475342 C20.8602391 30.31725861 20.72461103 32.17567178 20.68115234 35.04394531 C20.66128265 36.04468079 20.64141296 37.04541626 20.62094116 38.07647705 C20.60938995 39.14952087 20.59783875 40.2225647 20.5859375 41.328125 C20.56657135 42.43226746 20.5472052 43.53640991 20.5272522 44.67401123 C20.46749108 48.19926233 20.42108436 51.72454615 20.375 55.25 C20.33681708 57.64063921 20.29776517 60.03126471 20.2578125 62.421875 C20.16179216 68.2811386 20.07774785 74.1404666 20 80 C13.73 80 7.46 80 1 80 C0.01517218 76.06068872 -0.1342477 72.58249849 -0.11352539 68.56933594 C-0.11367142 67.82748047 -0.11381744 67.085625 -0.1139679 66.32128906 C-0.11327269 63.87562103 -0.10549866 61.43002969 -0.09765625 58.984375 C-0.09579068 57.28615358 -0.09436743 55.58793162 -0.09336853 53.88970947 C-0.08955432 49.42466745 -0.07973339 44.95965806 -0.06866455 40.49462891 C-0.05842687 35.93652793 -0.05386586 31.37842167 -0.04882812 26.8203125 C-0.03811014 17.8801917 -0.0205222 8.94010367 0 0 Z " fill="#812ABA" transform="translate(247,216)"/>
<path d="M0 0 C0.33 0.33 0.66 0.66 1 1 C2.34747084 1.23075082 3.70377565 1.41153063 5.0625 1.5625 C6.361875 1.706875 7.66125 1.85125 9 2 C9.33 2.99 9.66 3.98 10 5 C8.68 5 7.36 5 6 5 C6.33 5.99 6.66 6.98 7 8 C6.01 8.33 5.02 8.66 4 9 C4.66 10.32 5.32 11.64 6 13 C3 13 0 13 -3 13 C-3.928125 13.04125 -4.85625 13.0825 -5.8125 13.125 C-9.54395414 12.97866847 -12.45226269 12.13527594 -16 11 C-16 10.34 -16 9.68 -16 9 C-16.66 9 -17.32 9 -18 9 C-18 8.34 -18 7.68 -18 7 C-18.66 7 -19.32 7 -20 7 C-19.67 6.01 -19.34 5.02 -19 4 C-18.67 4.33 -18.34 4.66 -18 5 C-18 4.01 -18 3.02 -18 2 C-12.0063721 -0.1310677 -6.34479831 -0.47201787 0 0 Z " fill="#B61ADC" transform="translate(210,215)"/>
<path d="M0 0 C0.33 11.22 0.66 22.44 1 34 C1.66 34 2.32 34 3 34 C3 33.34 3 32.68 3 32 C4.65 31.34 6.3 30.68 8 30 C6.25 33.875 6.25 33.875 4 35 C2.86649466 37.01669827 2.86649466 37.01669827 2 39 C0.35 38.67 -1.3 38.34 -3 38 C-2.67 25.79 -2.34 13.58 -2 1 C-7.94 1 -13.88 1 -20 1 C-20 35.98 -20 70.96 -20 107 C-20.33 107 -20.66 107 -21 107 C-21 71.69 -21 36.38 -21 0 C-3 -1 -3 -1 0 0 Z " fill="#30167E" transform="translate(392,188)"/>
<path d="M0 0 C0.33 0.66 0.66 1.32 1 2 C1.66 2 2.32 2 3 2 C4.23417504 11.54299123 4.11240467 21.02258835 4.0625 30.625 C4.05747477 32.31380076 4.05291368 34.00260296 4.04882812 35.69140625 C4.03790399 39.79430711 4.0206958 43.89713727 4 48 C5.32 48 6.64 48 8 48 C8 48.66 8 49.32 8 50 C11.63 50.33 15.26 50.66 19 51 C19.33 39.12 19.66 27.24 20 15 C20.66 15.33 21.32 15.66 22 16 C22.10777649 28.72260044 22.04609163 41.31613899 21 54 C14.4 53.67 7.8 53.34 1 53 C0.67 35.51 0.34 18.02 0 0 Z M5 4 C5.66 4.66 6.32 5.32 7 6 C6.01 5.67 5.02 5.34 4 5 C4.33 4.67 4.66 4.34 5 4 Z " fill="#9420A1" transform="translate(136,242)"/>
<path d="M0 0 C1.32 0 2.64 0 4 0 C4 1.32 4 2.64 4 4 C4.66 4 5.32 4 6 4 C7.51059728 8.0597302 8 10.54610667 8 15 C2.72 15 -2.56 15 -8 15 C-8.33 12.69 -8.66 10.38 -9 8 C-7.68 8.33 -6.36 8.66 -5 9 C-5 8.01 -5 7.02 -5 6 C-2.525 6.99 -2.525 6.99 0 8 C-0.66 6.02 -1.32 4.04 -2 2 C-1.34 1.34 -0.68 0.68 0 0 Z " fill="#5D1CE7" transform="translate(353,224)"/>
<path d="M0 0 C0.33 0 0.66 0 1 0 C1.85453433 3.69576905 2.12178203 7.1020461 2.11352539 10.8918457 C2.11344986 12.05267166 2.11337433 13.21349762 2.11329651 14.40950012 C2.10813522 15.65237289 2.10297394 16.89524567 2.09765625 18.17578125 C2.0962413 19.45607712 2.09482635 20.73637299 2.09336853 22.0554657 C2.08956397 25.4469704 2.07975143 28.83843177 2.06866455 32.22991943 C2.05840597 35.69559137 2.05386141 39.16127036 2.04882812 42.62695312 C2.03780755 49.4179899 2.02054722 56.20898563 2 63 C-3.61 62.67 -9.22 62.34 -15 62 C-15 61.67 -15 61.34 -15 61 C-10.05 61 -5.1 61 0 61 C-0.03029297 59.89301758 -0.06058594 58.78603516 -0.09179688 57.64550781 C-0.20633378 53.4333384 -0.31726266 49.22107962 -0.42724609 45.00878906 C-0.47480506 43.20537851 -0.52326948 41.40199156 -0.57275391 39.59863281 C-0.84524305 29.64443744 -1.05380167 19.6925061 -1.09375 9.734375 C-1.1002356 8.8711261 -1.10672119 8.0078772 -1.11340332 7.11846924 C-1.11496422 5.07862981 -1.06306319 3.03886497 -1 1 C-0.67 0.67 -0.34 0.34 0 0 Z " fill="#8020B9" transform="translate(236,233)"/>
<path d="M0 0 C1.15242187 0.00902344 2.30484375 0.01804688 3.4921875 0.02734375 C4.36101562 0.03894531 5.22984375 0.05054688 6.125 0.0625 C5.34125 0.660625 4.5575 1.25875 3.75 1.875 C0.97925677 3.97335249 0.97925677 3.97335249 -0.875 7.0625 C-0.875 6.0725 -0.875 5.0825 -0.875 4.0625 C-1.865 4.5575 -1.865 4.5575 -2.875 5.0625 C-3.205 6.0525 -3.535 7.0425 -3.875 8.0625 C-3.215 8.0625 -2.555 8.0625 -1.875 8.0625 C-1.875 9.3825 -1.875 10.7025 -1.875 12.0625 C-5.505 12.7225 -9.135 13.3825 -12.875 14.0625 C-12.875 9.7725 -12.875 5.4825 -12.875 1.0625 C-8.30861089 0.30143515 -4.55926546 -0.04652312 0 0 Z " fill="#B219DF" transform="translate(198.875,248.9375)"/>
<path d="M0 0 C0.33 0 0.66 0 1 0 C1 17.16 1 34.32 1 52 C-5.6 52 -12.2 52 -19 52 C-17 50 -17 50 -13.3046875 49.8046875 C-11.82799892 49.817991 -10.35137642 49.84185165 -8.875 49.875 C-8.12089844 49.88402344 -7.36679687 49.89304687 -6.58984375 49.90234375 C-4.72642746 49.9259313 -2.86317407 49.96180281 -1 50 C-1.0169693 49.40309357 -1.0339386 48.80618713 -1.05142212 48.19119263 C-1.22557297 41.99509261 -1.38551912 35.79874297 -1.53710938 29.60205078 C-1.59561503 27.28750201 -1.65777861 24.97304275 -1.72363281 22.65869141 C-1.8175015 19.33773088 -1.89833765 16.01667367 -1.9765625 12.6953125 C-2.00875885 11.65569366 -2.0409552 10.61607483 -2.0741272 9.54495239 C-2.09429901 8.58410736 -2.11447083 7.62326233 -2.13525391 6.63330078 C-2.15746002 5.78502716 -2.17966614 4.93675354 -2.20254517 4.06277466 C-2 2 -2 2 0 0 Z " fill="#361AA8" transform="translate(391,244)"/>
<path d="M0 0 C6.75 1.75 6.75 1.75 9 4 C11.32275177 4.40047444 13.65739357 4.7397104 16 5 C16.33 5.99 16.66 6.98 17 8 C23.27 7.67 29.54 7.34 36 7 C36 6.01 36 5.02 36 4 C40.95 4.99 40.95 4.99 46 6 C46 5.34 46 4.68 46 4 C46.804375 3.87625 47.60875 3.7525 48.4375 3.625 C49.283125 3.41875 50.12875 3.2125 51 3 C51.33 2.34 51.66 1.68 52 1 C52.99 1 53.98 1 55 1 C55 1.66 55 2.32 55 3 C53.49609375 4.21875 53.49609375 4.21875 51.4375 5.5 C50.77621094 5.9228125 50.11492187 6.345625 49.43359375 6.78125 C38.61406458 12.199698 22.40789769 11.85684054 11 8.3125 C6.60052156 6.53236421 3.3064902 4.39833715 0 1 C0 0.67 0 0.34 0 0 Z " fill="#3E199E" transform="translate(302,287)"/>
<path d="M0 0 C2.86260256 2.86260256 4.12066324 4.82764028 4.49050903 8.8949585 C4.4838472 10.40053314 4.4838472 10.40053314 4.47705078 11.93652344 C4.47689972 13.07740417 4.47674866 14.21828491 4.47659302 15.39373779 C4.46627045 16.61989807 4.45594788 17.84605835 4.4453125 19.109375 C4.4424826 20.36888977 4.43965271 21.62840454 4.43673706 22.92608643 C4.42744121 26.26673902 4.40948583 29.60711669 4.3873291 32.94769287 C4.36683208 36.35963572 4.35772712 39.77160702 4.34765625 43.18359375 C4.32559907 49.87247168 4.29212367 56.56121997 4.25 63.25 C3.92 63.25 3.59 63.25 3.25 63.25 C3.24191315 62.60155624 3.23382629 61.95311249 3.22549438 61.28501892 C3.13926176 54.51997675 3.03975013 47.7552213 2.93261719 40.99047852 C2.89439635 38.46774114 2.85953158 35.94495055 2.828125 33.42211914 C2.78232515 29.79033423 2.7243543 26.15891348 2.6640625 22.52734375 C2.65251129 21.40416245 2.64096008 20.28098114 2.62905884 19.12376404 C2.52302189 13.46390098 2.15561054 8.59573904 0.25 3.25 C-0.41 3.25 -1.07 3.25 -1.75 3.25 C-1.75 2.59 -1.75 1.93 -1.75 1.25 C-8.1325425 -0.55057965 -14.37041651 -0.77366037 -20.375 2.25 C-21.48875 2.91 -22.6025 3.57 -23.75 4.25 C-24.08 2.6 -24.41 0.95 -24.75 -0.75 C-17.35971776 -2.15767281 -6.63832839 -4.17968824 0 0 Z " fill="#3B27A5" transform="translate(419.75,232.75)"/>
<path d="M0 0 C6.75 -0.125 6.75 -0.125 9 1 C12.21110497 1.27941936 15.42221923 1.44682523 18.640625 1.62109375 C22.03642895 2.00410885 24.84428444 2.6975671 28 4 C28.33 4.66 28.66 5.32 29 6 C29.99 6 30.98 6 32 6 C32 6.99 32 7.98 32 9 C32.66 9 33.32 9 34 9 C33.47731534 11.76276177 32.89130413 14.3260876 32 17 C31.01 17 30.02 17 29 17 C28.34 17.66 27.68 18.32 27 19 C26.01 18.34 25.02 17.68 24 17 C24.66 16.34 25.32 15.68 26 15 C26.28602162 10.85490567 26.28602162 10.85490567 25 7 C20.26130985 4.54862057 14.87944936 3.86568998 9.6875 2.875 C8.75615234 2.69324219 7.82480469 2.51148438 6.86523438 2.32421875 C4.57763507 1.87843017 2.28925909 1.43717053 0 1 C0 0.67 0 0.34 0 0 Z " fill="#4A1CC7" transform="translate(318,261)"/>
<path d="M0 0 C0.66 0.33 1.32 0.66 2 1 C1.67657623 1.55596863 1.35315247 2.11193726 1.01992798 2.68475342 C-0.1397609 5.31725861 -0.27538897 7.17567178 -0.31884766 10.04394531 C-0.33871735 11.04468079 -0.35858704 12.04541626 -0.37905884 13.07647705 C-0.39061005 14.14952087 -0.40216125 15.2225647 -0.4140625 16.328125 C-0.43342865 17.43226746 -0.4527948 18.53640991 -0.4727478 19.67401123 C-0.53250892 23.19926233 -0.57891564 26.72454615 -0.625 30.25 C-0.66318292 32.64063921 -0.70223483 35.03126471 -0.7421875 37.421875 C-0.83820784 43.2811386 -0.92225215 49.1404666 -1 55 C-7.27 55 -13.54 55 -20 55 C-21.04973814 50.80104745 -20.72795155 48.20594226 -20 44 C-19.67 44 -19.34 44 -19 44 C-19 46.64 -19 49.28 -19 52 C-18.443125 51.98839844 -17.88625 51.97679687 -17.3125 51.96484375 C-16.549375 51.95582031 -15.78625 51.94679688 -15 51.9375 C-14.2575 51.92589844 -13.515 51.91429687 -12.75 51.90234375 C-9.12561052 52.03105076 -5.59726821 52.53588816 -2 53 C-2.01918991 52.38025803 -2.03837982 51.76051605 -2.05815125 51.12199402 C-2.25453885 44.68258268 -2.42954593 38.24284415 -2.59204102 31.80249023 C-2.65554252 29.39771605 -2.72452936 26.9930803 -2.79907227 24.58862305 C-2.90516072 21.13612039 -2.9916324 17.68360348 -3.07421875 14.23046875 C-3.11157639 13.15226364 -3.14893402 12.07405853 -3.18742371 10.96318054 C-3.21779472 9.46196404 -3.21779472 9.46196404 -3.2487793 7.93041992 C-3.27320602 7.04883713 -3.29763275 6.16725433 -3.32279968 5.25895691 C-2.93415108 2.53918829 -2.10610353 1.69096614 0 0 Z " fill="#5F219B" transform="translate(268,241)"/>
<path d="M0 0 C1.18613892 0.00785522 1.18613892 0.00785522 2.39624023 0.01586914 C3.67724609 0.02070313 3.67724609 0.02070313 4.98413086 0.02563477 C5.88196289 0.03401367 6.77979492 0.04239258 7.70483398 0.05102539 C8.6065332 0.05553711 9.50823242 0.06004883 10.43725586 0.06469727 C12.67234712 0.07652315 14.90730835 0.09300319 17.14233398 0.11352539 C17.38757813 0.66782227 17.63282227 1.22211914 17.88549805 1.79321289 C18.22291016 2.51766602 18.56032227 3.24211914 18.90795898 3.98852539 C19.23570312 4.70782227 19.56344727 5.42711914 19.90112305 6.16821289 C21.97865873 9.42427196 24.53646247 10.00402646 28.14233398 11.11352539 C28.14233398 11.44352539 28.14233398 11.77352539 28.14233398 12.11352539 C25.01733398 12.55102539 25.01733398 12.55102539 21.14233398 12.11352539 C18.662019 10.11205647 16.75069252 7.86482004 15.14233398 5.11352539 C15.14233398 4.12352539 15.14233398 3.13352539 15.14233398 2.11352539 C10.19233398 2.11352539 5.24233398 2.11352539 0.14233398 2.11352539 C0.14233398 3.43352539 0.14233398 4.75352539 0.14233398 6.11352539 C0.80233398 6.11352539 1.46233398 6.11352539 2.14233398 6.11352539 C2.3240918 7.05325195 2.3240918 7.05325195 2.50952148 8.01196289 C2.67709961 8.82922852 2.84467773 9.64649414 3.01733398 10.48852539 C3.17975586 11.30063477 3.34217773 12.11274414 3.50952148 12.94946289 C4.0089233 15.30026462 4.0089233 15.30026462 6.14233398 17.11352539 C5.15233398 17.11352539 4.16233398 17.11352539 3.14233398 17.11352539 C-2.58561412 6.41853742 -2.58561412 6.41853742 -2.85766602 1.11352539 C-1.85766602 0.11352539 -1.85766602 0.11352539 0 0 Z " fill="#4A1B98" transform="translate(296.857666015625,268.886474609375)"/>
<path d="M0 0 C6.45881721 4.69732161 9.2868661 8.95620661 10.6875 16.8984375 C11.4766641 22.58341421 12.13397713 28.25014805 12 34 C11.34 34 10.68 34 10 34 C9.67 31.03 9.34 28.06 9 25 C8.34 25.33 7.68 25.66 7 26 C6.87625 25.195625 6.7525 24.39125 6.625 23.5625 C6.41875 22.716875 6.2125 21.87125 6 21 C5.34 20.67 4.68 20.34 4 20 C4.66 20 5.32 20 6 20 C6.87134188 17.28642465 6.87134188 17.28642465 7 14 C5.12821884 10.81711646 5.12821884 10.81711646 3 8 C3 7.01 3 6.02 3 5 C2.01 5 1.02 5 0 5 C0 3.35 0 1.7 0 0 Z " fill="#AA1FAF" transform="translate(146,220)"/>
<path d="M0 0 C3.99739152 0.35271102 6.43170068 1.79781945 9.5703125 4.2578125 C13.61684435 9.18883219 14.37032975 14.25017681 14.29296875 20.46484375 C14.28872391 21.14301651 14.28447906 21.82118927 14.28010559 22.51991272 C14.26347941 24.65953402 14.22586174 26.79816947 14.1875 28.9375 C14.17243222 30.39907482 14.1587475 31.86066458 14.14648438 33.32226562 C14.11362977 36.88182397 14.06196241 40.44081556 14 44 C13.67 44 13.34 44 13 44 C12.98018066 43.20827393 12.96036133 42.41654785 12.93994141 41.60083008 C12.8445284 38.0043924 12.73491409 34.40852249 12.625 30.8125 C12.5940625 29.56662109 12.563125 28.32074219 12.53125 27.03710938 C12.49257812 25.83505859 12.45390625 24.63300781 12.4140625 23.39453125 C12.36693115 21.73707886 12.36693115 21.73707886 12.31884766 20.04614258 C12.00122818 17.01173354 11.27753965 14.75455478 10 12 C9.01 12.495 9.01 12.495 8 13 C6.4375 11.75 6.4375 11.75 5 10 C5.3125 7.8125 5.3125 7.8125 6 6 C4.68 5.34 3.36 4.68 2 4 C2 3.01 2 2.02 2 1 C1.34 0.67 0.68 0.34 0 0 Z " fill="#DC4CA8" transform="translate(92,179)"/>
<path d="M0 0 C0.66 0.66 1.32 1.32 2 2 C0.02 2 -1.96 2 -4 2 C-4 1.34 -4 0.68 -4 0 C-5.299375 0.020625 -6.59875 0.04125 -7.9375 0.0625 C-9.29165633 0.08399454 -10.64756083 0.07148199 -12 0 C-12.495 -0.495 -12.495 -0.495 -13 -1 C-14.78940972 -1.09908783 -16.58285508 -1.12970379 -18.375 -1.125 C-19.35210937 -1.12757813 -20.32921875 -1.13015625 -21.3359375 -1.1328125 C-24.10464416 -1.11434035 -24.10464416 -1.11434035 -27 0 C-28.39439664 0.06665376 -29.79169875 0.08538199 -31.1875 0.0625 C-33.0746875 0.0315625 -33.0746875 0.0315625 -35 0 C-35.33 0.99 -35.66 1.98 -36 3 C-37.98 3.33 -39.96 3.66 -42 4 C-42 4.66 -42 5.32 -42 6 C-42.99 6 -43.98 6 -45 6 C-44.00711401 3.46734428 -43.3570558 2.22096774 -41.01171875 0.76953125 C-40.24472656 0.45371094 -39.47773438 0.13789063 -38.6875 -0.1875 C-37.92824219 -0.51105469 -37.16898438 -0.83460938 -36.38671875 -1.16796875 C-25.89971846 -4.82382974 -10.03272842 -4.98208382 0 0 Z " fill="#861E94" transform="translate(223,217)"/>
<path d="M0 0 C0.66 0.33 1.32 0.66 2 1 C3.79657776 9.84326904 3.01082036 19.34668821 2.703125 28.32177734 C2.62395741 30.65573692 2.55739657 32.98983142 2.4921875 35.32421875 C2.44604458 36.81252288 2.39919651 38.30080535 2.3515625 39.7890625 C2.33171295 40.48480377 2.3118634 41.18054504 2.29141235 41.89736938 C2.11552449 46.76895102 2.11552449 46.76895102 1 49 C0.01 48.67 -0.98 48.34 -2 48 C-1.855625 47.484375 -1.71125 46.96875 -1.5625 46.4375 C-0.02199676 39.76198597 0.02739365 33.5072839 -0.03125 26.66796875 C0.01350388 21.414982 0.46431608 16.22291818 1 11 C0.01 10.67 -0.98 10.34 -2 10 C-1.34 10 -0.68 10 0 10 C-0.66 7.03 -1.32 4.06 -2 1 C-1.34 0.67 -0.68 0.34 0 0 Z " fill="#C61FD8" transform="translate(154,244)"/>
<path d="M0 0 C4.20766632 3.36613306 5.23655723 6.85680661 6 12 C6 13.32 6 14.64 6 16 C-0.27 16 -6.54 16 -13 16 C-16 10 -16 10 -16 8 C-19.31544299 6.89485234 -22.20410111 6.67892369 -25.6875 6.4375 C-27.45673828 6.31181641 -27.45673828 6.31181641 -29.26171875 6.18359375 C-30.16535156 6.12300781 -31.06898438 6.06242188 -32 6 C-32 5.67 -32 5.34 -32 5 C-29.4149133 4.86473384 -26.83691248 4.76582347 -24.25 4.6875 C-23.52039063 4.64560547 -22.79078125 4.60371094 -22.0390625 4.56054688 C-18.20877321 4.47349485 -16.40546073 4.64427746 -13.484375 7.20703125 C-12 10 -12 10 -12 15 C-6.72 15 -1.44 15 4 15 C3.34 13.02 2.68 11.04 2 9 C1.875 6.125 1.875 6.125 2 4 C1.34 4 0.68 4 0 4 C0 2.68 0 1.36 0 0 Z " fill="#3C1592" transform="translate(357,224)"/>
<path d="M0 0 C-1.375 2.5 -1.375 2.5 -3 5 C-3.66 5 -4.32 5 -5 5 C-5.33 6.32 -5.66 7.64 -6 9 C-7.65614657 9.38218767 -9.32457024 9.71395102 -11 10 C-11.33 9.67 -11.66 9.34 -12 9 C-12.66 9.99 -13.32 10.98 -14 12 C-14.25 9.25 -14.25 9.25 -14 6 C-12 3.625 -12 3.625 -10 2 C-9.01 2.33 -8.02 2.66 -7 3 C-7 2.34 -7 1.68 -7 1 C-3.375 -1.125 -3.375 -1.125 0 0 Z M-16 12 C-15.01 12.495 -15.01 12.495 -14 13 C-14.33 14.32 -14.66 15.64 -15 17 C-15.33 17 -15.66 17 -16 17 C-16 15.35 -16 13.7 -16 12 Z " fill="#BE18DE" transform="translate(183,254)"/>
<path d="M0 0 C1.32 0.33 2.64 0.66 4 1 C4.17749704 5.52617458 4.18253783 8.97741489 2 13 C-6.40092116 16.8695152 -18.84281169 15.63940606 -28 16 C-25.18026694 13.18026694 -22.86764077 13.44061638 -18.9375 13 C-8.4686033 12.03517147 -8.4686033 12.03517147 1 8 C1.31845551 4.89505874 0.99424641 2.98273923 0 0 Z " fill="#8C1FBA" transform="translate(216,234)"/>
<path d="M0 0 C5.28 0 10.56 0 16 0 C16.33 2.97 16.66 5.94 17 9 C17.99 9.33 18.98 9.66 20 10 C18.68 10.33 17.36 10.66 16 11 C15.67 8.36 15.34 5.72 15 3 C13.68 3 12.36 3 11 3 C11 3.66 11 4.32 11 5 C10.34 5 9.68 5 9 5 C9 4.01 9 3.02 9 2 C7.02 2.99 7.02 2.99 5 4 C4.67 3.67 4.34 3.34 4 3 C2.08697693 6.26613695 1.64325339 8.99445248 1.375 12.75 C1.30023438 13.73484375 1.22546875 14.7196875 1.1484375 15.734375 C1.07496094 16.85585937 1.07496094 16.85585937 1 18 C0.67 18 0.34 18 0 18 C0 12.06 0 6.12 0 0 Z " fill="#9C17E7" transform="translate(249,217)"/>
<path d="M0 0 C-2.83700862 2.83700862 -5.23825323 2.59857072 -9.1875 3.0625 C-11.12689453 3.29646484 -11.12689453 3.29646484 -13.10546875 3.53515625 C-15.03326172 3.76525391 -15.03326172 3.76525391 -17 4 C-19.335511 4.31997113 -21.66754937 4.65814926 -24 5 C-25.00496852 8.01490557 -25.10335303 10.04181692 -25.0625 13.1875 C-25.04896484 14.53908203 -25.04896484 14.53908203 -25.03515625 15.91796875 C-25.02355469 16.60503906 -25.01195312 17.29210937 -25 18 C-25.99 18 -26.98 18 -28 18 C-28.05437607 16.41705218 -28.09296271 14.83355744 -28.125 13.25 C-28.14820313 12.36828125 -28.17140625 11.4865625 -28.1953125 10.578125 C-27.98802191 7.8418892 -27.52656186 6.26921357 -26 4 C-23.375 3.25 -23.375 3.25 -21 3 C-21 2.34 -21 1.68 -21 1 C-13.96094956 0.06145994 -7.09727428 -0.10808032 0 0 Z " fill="#791D97" transform="translate(211,260)"/>
<path d="M0 0 C-0.33 1.98 -0.66 3.96 -1 6 C-2.65 5.67 -4.3 5.34 -6 5 C-6.2165625 6.36125 -6.2165625 6.36125 -6.4375 7.75 C-6.623125 8.8225 -6.80875 9.895 -7 11 C-7.12375 11.763125 -7.2475 12.52625 -7.375 13.3125 C-7.58125 13.869375 -7.7875 14.42625 -8 15 C-8.99 15.33 -9.98 15.66 -11 16 C-11.33 19.96 -11.66 23.92 -12 28 C-12.33 28 -12.66 28 -13 28 C-13.91730119 12.34472634 -13.91730119 12.34472634 -9.50390625 6.5859375 C-3.25862069 0 -3.25862069 0 0 0 Z " fill="#611EB8" transform="translate(311,218)"/>
<path d="M0 0 C1.65 0.33 3.3 0.66 5 1 C4.57847656 1.48210937 4.15695313 1.96421875 3.72265625 2.4609375 C3.17480469 3.09257812 2.62695312 3.72421875 2.0625 4.375 C1.51722656 5.00148437 0.97195312 5.62796875 0.41015625 6.2734375 C-2.53398765 9.87817878 -2.21765681 13.38894463 -2.31640625 17.8515625 C-2.33718735 18.62559418 -2.35796844 19.39962585 -2.37937927 20.19711304 C-2.44483448 22.67298392 -2.50374087 25.14896202 -2.5625 27.625 C-2.60568907 29.30209448 -2.64930348 30.97917807 -2.69335938 32.65625 C-2.80051171 36.77072308 -2.90179045 40.88530414 -3 45 C-3.33 45 -3.66 45 -4 45 C-4 31.14 -4 17.28 -4 3 C-3.01 2.67 -2.02 2.34 -1 2 C-0.67 1.34 -0.34 0.68 0 0 Z " fill="#6C1360" transform="translate(110,233)"/>
<path d="M0 0 C0.99 0 1.98 0 3 0 C3 0.66 3 1.32 3 2 C1.390625 3.25390625 1.390625 3.25390625 -0.75 4.5625 C-1.44609375 4.99691406 -2.1421875 5.43132812 -2.859375 5.87890625 C-6.48345867 7.77692087 -9.70678317 8.12367447 -13.765625 8.09765625 C-14.65507812 8.09443359 -15.54453125 8.09121094 -16.4609375 8.08789062 C-17.38132812 8.07951172 -18.30171875 8.07113281 -19.25 8.0625 C-20.65378906 8.05573242 -20.65378906 8.05573242 -22.0859375 8.04882812 C-24.39069041 8.03706918 -26.69531227 8.02063426 -29 8 C-29 7.67 -29 7.34 -29 7 C-22.565 6.505 -22.565 6.505 -16 6 C-16 5.01 -16 4.02 -16 3 C-12.7 3.66 -9.4 4.32 -6 5 C-6 4.34 -6 3.68 -6 3 C-5.195625 2.87625 -4.39125 2.7525 -3.5625 2.625 C-2.716875 2.41875 -1.87125 2.2125 -1 2 C-0.67 1.34 -0.34 0.68 0 0 Z " fill="#4F20D6" transform="translate(354,288)"/>
<path d="M0 0 C2.64 0 5.28 0 8 0 C7.68950274 1.43793392 7.3765224 2.8753318 7.0625 4.3125 C6.88847656 5.11300781 6.71445312 5.91351563 6.53515625 6.73828125 C6 9 6 9 5 12 C6.32 13.32 7.64 14.64 9 16 C8.67 16.66 8.34 17.32 8 18 C5.26722779 15.82779645 3.27111085 14.14172035 2.4453125 10.6640625 C2.21349978 8.43725548 2.05362988 6.23782882 2 4 C1.34 4 0.68 4 0 4 C0 2.68 0 1.36 0 0 Z M2 2 C3 4 3 4 3 4 Z " fill="#6B19E5" transform="translate(297,271)"/>
<path d="M0 0 C1 2 1 2 0.75 4.9375 C0.8325 5.948125 0.915 6.95875 1 8 C5.00596326 11.12010445 9.46694567 12.0746247 14.3125 13.1875 C15.05306641 13.36474609 15.79363281 13.54199219 16.55664062 13.72460938 C18.36930342 14.15730953 20.18442027 14.57970716 22 15 C18.33890489 16.22036504 15.15655883 15.94694905 11.375 15.6875 C10.68148438 15.65205078 9.98796875 15.61660156 9.2734375 15.58007812 C7.50879543 15.46461815 5.75199503 15.24042891 4 15 C3.67 14.34 3.34 13.68 3 13 C-0.02934491 12.34227572 -0.02934491 12.34227572 -3 12 C-2.69230293 10.18667846 -2.37870936 8.37435655 -2.0625 6.5625 C-1.80146484 5.04849609 -1.80146484 5.04849609 -1.53515625 3.50390625 C-1 1 -1 1 0 0 Z " fill="#4B1BA9" transform="translate(318,232)"/>
<path d="M0 0 C0.66 0.99 1.32 1.98 2 3 C1.34 3 0.68 3 0 3 C-0.66 6.96 -1.32 10.92 -2 15 C3.28 15 8.56 15 14 15 C14.33 12.69 14.66 10.38 15 8 C15.99 8.33 16.98 8.66 18 9 C17.01 11.31 16.02 13.62 15 16 C8.73 16 2.46 16 -4 16 C-3.58706708 9.88859272 -3.23325003 5.34189136 0 0 Z " fill="#892999" transform="translate(172,227)"/>
<path d="M0 0 C0 6.27 0 12.54 0 19 C-5.28 19.33 -10.56 19.66 -16 20 C-15.505 18.515 -15.505 18.515 -15 17 C-8.07 17.495 -8.07 17.495 -1 18 C-1 12.39 -1 6.78 -1 1 C-5.62 1.33 -10.24 1.66 -15 2 C-10.25368713 -1.16420858 -5.63243123 -0.12112755 0 0 Z " fill="#632398" transform="translate(295,214)"/>
<path d="M0 0 C0.99 0 1.98 0 3 0 C4 3 4 3 3.0625 5.1875 C2.711875 5.785625 2.36125 6.38375 2 7 C0.35 7 -1.3 7 -3 7 C-3 9.31 -3 11.62 -3 14 C-3.99 13.67 -4.98 13.34 -6 13 C-8.33299825 12.96045766 -10.66708189 12.95598268 -13 13 C-10.82615436 10.82615436 -8.68729526 9.47801239 -6 8 C-5.34 8 -4.68 8 -4 8 C-4 7.34 -4 6.68 -4 6 C-3.34 6 -2.68 6 -2 6 C-1.34 4.02 -0.68 2.04 0 0 Z " fill="#8B19BF" transform="translate(217,268)"/>
<path d="M0 0 C-2.36146324 0.78715441 -3.80806579 1.0389145 -6.2734375 0.5390625 C-9.82362573 -0.16283718 -13.02043014 0.11194461 -16.625 0.375 C-18.59339844 0.51035156 -18.59339844 0.51035156 -20.6015625 0.6484375 C-23.98404092 0.87416339 -23.98404092 0.87416339 -27 2 C-27.66 1.34 -28.32 0.68 -29 0 C-19.46018489 -4.48932476 -9.53981511 -4.48932476 0 0 Z " fill="#3E1FA6" transform="translate(429,217)"/>
<path d="M0 0 C2.0625 0.4375 2.0625 0.4375 4 1 C3.67 1.99 3.34 2.98 3 4 C3.66 4 4.32 4 5 4 C5 4.99 5 5.98 5 7 C-0.75 5.125 -0.75 5.125 -3 4 C-8.04375319 3.69648211 -13.09260374 3.691361 -18 5 C-18 5.66 -18 6.32 -18 7 C-18.99 7.33 -19.98 7.66 -21 8 C-21 6.68 -21 5.36 -21 4 C-19.35 4 -17.7 4 -16 4 C-16 3.34 -16 2.68 -16 2 C-14.92878906 1.93941406 -13.85757813 1.87882813 -12.75390625 1.81640625 C-11.35675609 1.73201463 -9.95962143 1.64736594 -8.5625 1.5625 C-7.50192383 1.50352539 -7.50192383 1.50352539 -6.41992188 1.44335938 C-2.91309581 1.52375562 -2.91309581 1.52375562 0 0 Z " fill="#901CB8" transform="translate(211,227)"/>
<path d="M0 0 C-5.44420234 3.41614683 -10.03750538 3.42439652 -16.25 3.3125 C-17.61511719 3.31733398 -17.61511719 3.31733398 -19.0078125 3.32226562 C-25.73261032 3.26738968 -25.73261032 3.26738968 -28 1 C-26.02966797 0.90912109 -26.02966797 0.90912109 -24.01953125 0.81640625 C-22.28384459 0.73196744 -20.54816802 0.64732112 -18.8125 0.5625 C-17.94818359 0.52318359 -17.08386719 0.48386719 -16.19335938 0.44335938 C-0.94796875 -0.31598958 -0.94796875 -0.31598958 0 0 Z " fill="#711C9B" transform="translate(209,294)"/>
<path d="M0 0 C3.66172475 0.62678171 6.8818995 1.64451846 10.3125 3.0625 C11.19550781 3.42472656 12.07851563 3.78695312 12.98828125 4.16015625 C13.65214844 4.43730469 14.31601562 4.71445313 15 5 C15 5.66 15 6.32 15 7 C15.66 7 16.32 7 17 7 C18.625 9 18.625 9 20 11 C19.67 11.66 19.34 12.32 19 13 C16.525 12.505 16.525 12.505 14 12 C13.67 10.02 13.34 8.04 13 6 C12.01 6 11.02 6 10 6 C10 5.34 10 4.68 10 4 C7.03 3.67 4.06 3.34 1 3 C0.67 2.01 0.34 1.02 0 0 Z " fill="#3F1B99" transform="translate(342,248)"/>
<path d="M0 0 C5.28 0.33 10.56 0.66 16 1 C14 4 14 4 11.6171875 4.73046875 C10.71226562 4.88128906 9.80734375 5.03210938 8.875 5.1875 C7.50988281 5.42533203 7.50988281 5.42533203 6.1171875 5.66796875 C5.06917969 5.83232422 5.06917969 5.83232422 4 6 C4 5.34 4 4.68 4 4 C2.68 4 1.36 4 0 4 C0 2.68 0 1.36 0 0 Z " fill="#8118AF" transform="translate(188,280)"/>
<path d="M0 0 C2.7336432 -0.29519768 2.7336432 -0.29519768 5 -1 C5 0.32 5 1.64 5 3 C0.05 3 -4.9 3 -10 3 C-10 2.01 -10 1.02 -10 0 C-5.76524477 -2.17787412 -4.26426582 -1.81231297 0 0 Z " fill="#8918DF" transform="translate(231,291)"/>
<path d="M0 0 C0.6875 1.8125 0.6875 1.8125 1 4 C-0.3125 5.75 -0.3125 5.75 -2 7 C-2.66 7 -3.32 7 -4 7 C-4 6.01 -4 5.02 -4 4 C-5.98 4.33 -7.96 4.66 -10 5 C-10 5.66 -10 6.32 -10 7 C-11.65 7 -13.3 7 -15 7 C-10.8721428 2.21168564 -6.33062166 0 0 0 Z " fill="#A01FC0" transform="translate(186,250)"/>
<path d="M0 0 C4.82890552 3.51193128 8.306434 7.12507794 10 13 C9.59765625 15.24609375 9.59765625 15.24609375 9 17 C7.99157547 15.56839732 6.99352109 14.12948547 6 12.6875 C5.443125 11.88699219 4.88625 11.08648437 4.3125 10.26171875 C3 8 3 8 3 5 C2.01 5 1.02 5 0 5 C0 3.35 0 1.7 0 0 Z " fill="#A4289C" transform="translate(146,220)"/>
<path d="M0 0 C0.33 0 0.66 0 1 0 C1 2.64 1 5.28 1 8 C1.8353125 7.98259766 1.8353125 7.98259766 2.6875 7.96484375 C7.89778343 7.90323567 12.8437951 8.25000656 18 9 C18 9.33 18 9.66 18 10 C16.12528812 10.16987681 14.25021305 10.33574776 12.375 10.5 C11.33085937 10.5928125 10.28671875 10.685625 9.2109375 10.78125 C6.12853212 10.99124355 3.08834771 11.03709727 0 11 C-1.37432457 7.18243176 -0.67975039 3.92744671 0 0 Z " fill="#6925B1" transform="translate(248,285)"/>
<path d="M0 0 C0.66 0 1.32 0 2 0 C2 0.99 2 1.98 2 3 C2.99 3.33 3.98 3.66 5 4 C5.33 4.33 5.66 4.66 6 5 C6.66 4.67 7.32 4.34 8 4 C9.5 8.5 9.5 8.5 11 13 C6.04692946 11.83457164 4.02558405 8.8657115 1.13671875 4.97265625 C0 3 0 3 0 0 Z " fill="#891EAA" transform="translate(166,280)"/>
<path d="M0 0 C0 3.11227195 -0.45627049 5.94152152 -1 9 C-1.66 9 -2.32 9 -3 9 C-2.773125 10.2375 -2.54625 11.475 -2.3125 12.75 C-1.75988173 15.7642815 -1.76483235 16.64011283 -3.48046875 19.265625 C-3.98191406 19.83796875 -4.48335937 20.4103125 -5 21 C-5.47276791 13.12053479 -5.21511332 7.76972745 -1 1 C-0.67 0.67 -0.34 0.34 0 0 Z " fill="#9524AA" transform="translate(170,257)"/>
<path d="M0 0 C-0.33 3.63 -0.66 7.26 -1 11 C-2.32 11.33 -3.64 11.66 -5 12 C-5.125 4.375 -5.125 4.375 -4 1 C-2 0 -2 0 0 0 Z " fill="#C81BD8" transform="translate(176,229)"/>
<path d="M0 0 C0.33 0.66 0.66 1.32 1 2 C0.154375 1.95359375 -0.69125 1.9071875 -1.5625 1.859375 C-8.96530419 1.62383123 -13.69641861 2.04481168 -20 6 C-20.33 4.35 -20.66 2.7 -21 1 C-14.03220597 -0.32719886 -7.07011089 -0.08825381 0 0 Z " fill="#3E20A3" transform="translate(416,231)"/>
<path d="M0 0 C0 0.66 0 1.32 0 2 C-4.89154337 3.20516286 -9.80275122 3.33461434 -14.8125 3.5625 C-15.69615234 3.60568359 -16.57980469 3.64886719 -17.49023438 3.69335938 C-19.65999623 3.79891536 -21.8299791 3.89991071 -24 4 C-21.16572423 1.16572423 -18.75592507 1.36549512 -14.8125 0.875 C-13.51957031 0.70742187 -12.22664062 0.53984375 -10.89453125 0.3671875 C-7.23360504 0.02202495 -3.67419287 -0.06671686 0 0 Z " fill="#8422A5" transform="translate(212,246)"/>
<path d="M0 0 C0.99 0.33 1.98 0.66 3 1 C2.67 1.99 2.34 2.98 2 4 C5.63 4.33 9.26 4.66 13 5 C13 5.33 13 5.66 13 6 C7.72 6 2.44 6 -3 6 C-3 4.68 -3 3.36 -3 2 C-2.01 2 -1.02 2 0 2 C0 1.34 0 0.68 0 0 Z " fill="#3D1BEF" transform="translate(428,288)"/>
<path d="M0 0 C1.9375 0.375 1.9375 0.375 4 1 C4.33 1.66 4.66 2.32 5 3 C7.02463255 3.65213292 7.02463255 3.65213292 9 4 C9 4.99 9 5.98 9 7 C6.69 7 4.38 7 2 7 C2 6.01 2 5.02 2 4 C0.68 3.67 -0.64 3.34 -2 3 C-1.34 3 -0.68 3 0 3 C0 2.01 0 1.02 0 0 Z " fill="#5C19F1" transform="translate(348,230)"/>
<path d="M0 0 C0.66 0 1.32 0 2 0 C2 0.66 2 1.32 2 2 C2.66 2 3.32 2 4 2 C2.74875245 7.68748885 0.95897432 10.72847508 -3 15 C-3.33 13.68 -3.66 12.36 -4 11 C-3.34 11 -2.68 11 -2 11 C-1.67 10.01 -1.34 9.02 -1 8 C-0.34 8 0.32 8 1 8 C0.67 5.36 0.34 2.72 0 0 Z " fill="#9C2290" transform="translate(102,276)"/>
<path d="M0 0 C0 0.33 0 0.66 0 1 C-0.71285156 1.03738281 -1.42570312 1.07476562 -2.16015625 1.11328125 C-10.51269601 1.64117759 -10.51269601 1.64117759 -18 5 C-19.0615942 8.58863524 -19.0615942 8.58863524 -19 12 C-19.33 12 -19.66 12 -20 12 C-20 8.7 -20 5.4 -20 2 C-13.24112575 -0.07965362 -7.04440079 -0.21133202 0 0 Z " fill="#672BC3" transform="translate(336,228)"/>
<path d="M0 0 C-0.33 1.98 -0.66 3.96 -1 6 C-2.65 5.67 -4.3 5.34 -6 5 C-6 5.99 -6 6.98 -6 8 C-6.66 8 -7.32 8 -8 8 C-8 8.66 -8 9.32 -8 10 C-8.99 10.33 -9.98 10.66 -11 11 C-9.7672897 6.34309441 -5.30909278 0 0 0 Z " fill="#5B1DAC" transform="translate(311,218)"/>
<path d="M0 0 C6.27 0 12.54 0 19 0 C19.33 2.31 19.66 4.62 20 7 C20.66 7.33 21.32 7.66 22 8 C21.67 8.99 21.34 9.98 21 11 C20.01 11 19.02 11 18 11 C18 7.7 18 4.4 18 1 C12.06 1 6.12 1 0 1 C0 0.67 0 0.34 0 0 Z " fill="#561A7B" transform="translate(248,215)"/>
<path d="M0 0 C0.99 0 1.98 0 3 0 C3 1.32 3 2.64 3 4 C3.66 4 4.32 4 5 4 C5 4.99 5 5.98 5 7 C2.36 7.33 -0.28 7.66 -3 8 C-2.34 7.01 -1.68 6.02 -1 5 C-1.33 4.34 -1.66 3.68 -2 3 C-1.34 2.01 -0.68 1.02 0 0 Z " fill="#9D18E5" transform="translate(205,286)"/>
<path d="M0 0 C1.32 0.66 2.64 1.32 4 2 C3.505 2.5775 3.01 3.155 2.5 3.75 C0.63019987 6.10400629 0.63019987 6.10400629 1 10 C1.99 10.66 2.98 11.32 4 12 C4 12.66 4 13.32 4 14 C3.01 14.33 2.02 14.66 1 15 C-1 13 -1 13 -1.23046875 10.21484375 C-1.21628906 9.13332031 -1.20210938 8.05179688 -1.1875 6.9375 C-1.18105469 5.85339844 -1.17460937 4.76929688 -1.16796875 3.65234375 C-1 1 -1 1 0 0 Z " fill="#761CE3" transform="translate(300,233)"/>
<path d="M0 0 C0 0.66 0 1.32 0 2 C-0.99 2 -1.98 2 -3 2 C-4.00496852 5.01490557 -4.10335303 7.04181692 -4.0625 10.1875 C-4.04896484 11.53908203 -4.04896484 11.53908203 -4.03515625 12.91796875 C-4.02355469 13.60503906 -4.01195312 14.29210937 -4 15 C-4.99 15 -5.98 15 -7 15 C-7.05437607 13.41705218 -7.09296271 11.83355744 -7.125 10.25 C-7.14820313 9.36828125 -7.17140625 8.4865625 -7.1953125 7.578125 C-6.98720489 4.83110453 -6.54477419 3.27112497 -5 1 C-2 0 -2 0 0 0 Z " fill="#8E23AC" transform="translate(190,263)"/>
<path d="M0 0 C3.40312738 1.05875074 6.01353231 2.00902154 9 4 C9 4.66 9 5.32 9 6 C9.66 6 10.32 6 11 6 C11 6.66 11 7.32 11 8 C9.68 8 8.36 8 7 8 C7 7.34 7 6.68 7 6 C6.401875 5.938125 5.80375 5.87625 5.1875 5.8125 C2.12856542 4.6763243 1.44958901 2.82669858 0 0 Z " fill="#4F1DB3" transform="translate(346,216)"/>
<path d="M0 0 C5.06017356 0.4464859 7.43305514 2.595189 11 6 C11.33 6.99 11.66 7.98 12 9 C11.01 9 10.02 9 9 9 C9 8.34 9 7.68 9 7 C7.824375 6.5359375 7.824375 6.5359375 6.625 6.0625 C4 5 4 5 2 4 C2 3.01 2 2.02 2 1 C1.34 0.67 0.68 0.34 0 0 Z " fill="#A13E7A" transform="translate(92,179)"/>
<path d="M0 0 C0.93065133 2.60582371 1.14917407 3.64198224 0.0625 6.25 C-0.4634375 7.11625 -0.4634375 7.11625 -1 8 C-1.33 7.67 -1.66 7.34 -2 7 C-2.66 7.99 -3.32 8.98 -4 10 C-4.25 7.25 -4.25 7.25 -4 4 C-2 1.625 -2 1.625 0 0 Z M-6 10 C-5.01 10.495 -5.01 10.495 -4 11 C-4.33 12.32 -4.66 13.64 -5 15 C-5.33 15 -5.66 15 -6 15 C-6 13.35 -6 11.7 -6 10 Z " fill="#BA20D3" transform="translate(173,256)"/>
<path d="M0 0 C0.66 0.33 1.32 0.66 2 1 C1.38125 1.5775 0.7625 2.155 0.125 2.75 C-1.81347053 4.80249821 -2.90014249 6.43366582 -4 9 C-5.65 8.67 -7.3 8.34 -9 8 C-9 6.02 -9 4.04 -9 2 C-8.67 2 -8.34 2 -8 2 C-7.67 3.65 -7.34 5.3 -7 7 C-6.34 6.01 -5.68 5.02 -5 4 C-4.34 4 -3.68 4 -3 4 C-3 3.34 -3 2.68 -3 2 C-2.01 1.34 -1.02 0.68 0 0 Z " fill="#4B22C2" transform="translate(398,218)"/>
<path d="M0 0 C0.33 0.66 0.66 1.32 1 2 C3.85839454 4.08882678 5.13064181 3.98693582 8.75 3.625 C9.8225 3.41875 10.895 3.2125 12 3 C12 3.66 12 4.32 12 5 C9.11788698 5.96070434 7.30149956 6.10581883 4.3125 6.0625 C3.10013672 6.04896484 3.10013672 6.04896484 1.86328125 6.03515625 C0.94095703 6.01775391 0.94095703 6.01775391 0 6 C0 4.02 0 2.04 0 0 Z " fill="#ED21C2" transform="translate(79,288)"/>
<path d="M0 0 C0.99 0.33 1.98 0.66 3 1 C3.66015625 2.99609375 3.66015625 2.99609375 4.0625 5.4375 C4.63171515 9.14163657 4.63171515 9.14163657 7 12 C6.01 12 5.02 12 4 12 C-0.57142857 4.71428571 -0.57142857 4.71428571 0 0 Z " fill="#511CAC" transform="translate(296,274)"/>
<path d="M0 0 C2.9525518 4.4288277 3.16235325 7.36617747 2.6875 12.625 C2.60886719 13.58664062 2.53023438 14.54828125 2.44921875 15.5390625 C2 18 2 18 0 20 C0.01740234 18.67935547 0.01740234 18.67935547 0.03515625 17.33203125 C0.04417969 16.17058594 0.05320312 15.00914062 0.0625 13.8125 C0.07410156 12.66394531 0.08570313 11.51539063 0.09765625 10.33203125 C0.09617381 7.06851088 0.09617381 7.06851088 -0.56640625 4.19921875 C-1 2 -1 2 0 0 Z " fill="#3E1DAB" transform="translate(362,261)"/>
<path d="M0 0 C5.7607103 1.29322068 9.33195882 3.37988643 14 7 C13.01 7.495 13.01 7.495 12 8 C9.6875 7.109375 9.6875 7.109375 7 5.75 C5.6696875 5.09257812 5.6696875 5.09257812 4.3125 4.421875 C2 3 2 3 0 0 Z " fill="#491B99" transform="translate(303,253)"/>
<path d="M0 0 C1 2 1 2 0.75 4.875 C0.66702035 8.21301303 0.66702035 8.21301303 3.5 10.375 C4.325 10.91125 5.15 11.4475 6 12 C3.03 12 0.06 12 -3 12 C-2.69230293 10.18667846 -2.37870936 8.37435655 -2.0625 6.5625 C-1.80146484 5.04849609 -1.80146484 5.04849609 -1.53515625 3.50390625 C-1 1 -1 1 0 0 Z " fill="#4B159A" transform="translate(318,232)"/>
<path d="M0 0 C1.23556641 0.01740234 1.23556641 0.01740234 2.49609375 0.03515625 C3.32238281 0.04417969 4.14867187 0.05320313 5 0.0625 C5.63808594 0.07410156 6.27617187 0.08570313 6.93359375 0.09765625 C6.14984375 0.69578125 5.36609375 1.29390625 4.55859375 1.91015625 C1.78785052 4.00850874 1.78785052 4.00850874 -0.06640625 7.09765625 C-1.05640625 5.11765625 -2.04640625 3.13765625 -3.06640625 1.09765625 C-2.06640625 0.09765625 -2.06640625 0.09765625 0 0 Z " fill="#B417E1" transform="translate(198.06640625,248.90234375)"/>
<path d="M0 0 C4.29 0 8.58 0 13 0 C13 0.33 13 0.66 13 1 C12.00419922 1.09087891 12.00419922 1.09087891 10.98828125 1.18359375 C4.45091919 1.79863507 4.45091919 1.79863507 -2 3 C-2 3.66 -2 4.32 -2 5 C-2.99 5.33 -3.98 5.66 -5 6 C-5 4.68 -5 3.36 -5 2 C-3.35 2 -1.7 2 0 2 C0 1.34 0 0.68 0 0 Z " fill="#8520A0" transform="translate(195,229)"/>
<path d="M0 0 C0.33 0.99 0.66 1.98 1 3 C-1.19909405 5.19909405 -3.56070254 7.07423885 -6 9 C-6.33 7.35 -6.66 5.7 -7 4 C-4.69 2.68 -2.38 1.36 0 0 Z " fill="#761FB8" transform="translate(277,216)"/>
<path d="M0 0 C0.99 0.33 1.98 0.66 3 1 C3 1.66 3 2.32 3 3 C3.66 3 4.32 3 5 3 C9.09030544 8.14209827 9.09030544 8.14209827 8.75 11.375 C8.37875 12.179375 8.37875 12.179375 8 13 C7.67 12.01 7.34 11.02 7 10 C4.98491642 9.26676204 4.98491642 9.26676204 3 9 C3.33 7.35 3.66 5.7 4 4 C3.34 4 2.68 4 2 4 C2 3.34 2 2.68 2 2 C1.34 2 0.68 2 0 2 C0 1.34 0 0.68 0 0 Z " fill="#721B95" transform="translate(227,220)"/>
<path d="M0 0 C5.98993047 -0.3152595 9.63560356 0.31780178 15 3 C15 3.33 15 3.66 15 4 C13.02 4 11.04 4 9 4 C9 3.34 9 2.68 9 2 C6.36 2 3.72 2 1 2 C0.67 1.34 0.34 0.68 0 0 Z " fill="#8822A7" transform="translate(210,215)"/>
<path d="M0 0 C3.04398329 2.84759727 4.88998401 4.69846555 5.09765625 9.04296875 C5.06510417 11.02864583 5.03255208 13.01432292 5 15 C4.67 15 4.34 15 4 15 C2.57741188 11.17679443 1.75957724 8.08718695 2 4 C1.34 4 0.68 4 0 4 C0 2.68 0 1.36 0 0 Z " fill="#4822B1" transform="translate(357,224)"/>
<path d="M0 0 C4.95 0.33 9.9 0.66 15 1 C15 1.33 15 1.66 15 2 C7.08 2.495 7.08 2.495 -1 3 C-0.67 2.01 -0.34 1.02 0 0 Z " fill="#57188F" transform="translate(280,231)"/>
<path d="M0 0 C1.32 0 2.64 0 4 0 C5.75 2 5.75 2 7 4 C6.67 4.66 6.34 5.32 6 6 C4.35 5.67 2.7 5.34 1 5 C0.67 3.35 0.34 1.7 0 0 Z " fill="#481DC5" transform="translate(355,255)"/>
<path d="M0 0 C2.625 -0.1875 2.625 -0.1875 5 0 C4.67 0.66 4.34 1.32 4 2 C3.01 2 2.02 2 1 2 C0.67 3.65 0.34 5.3 0 7 C-1.32 7.33 -2.64 7.66 -4 8 C-2.87548273 5.0280615 -1.77706209 2.66559313 0 0 Z " fill="#561EED" transform="translate(400,218)"/>
<path d="M0 0 C0.99 0 1.98 0 3 0 C3 0.66 3 1.32 3 2 C1.390625 3.32421875 1.390625 3.32421875 -0.75 4.6875 C-1.44609375 5.14511719 -2.1421875 5.60273438 -2.859375 6.07421875 C-5.39090725 7.16906025 -6.46100862 6.9435441 -9 6 C-8.01 6 -7.02 6 -6 6 C-6 5.01 -6 4.02 -6 3 C-5.195625 2.87625 -4.39125 2.7525 -3.5625 2.625 C-2.716875 2.41875 -1.87125 2.2125 -1 2 C-0.67 1.34 -0.34 0.68 0 0 Z " fill="#32198C" transform="translate(354,288)"/>
<path d="M0 0 C0.66 0 1.32 0 2 0 C2 3.63 2 7.26 2 11 C1.01 11.495 1.01 11.495 0 12 C-0.19401633 10.18818595 -0.38004375 8.37551468 -0.5625 6.5625 C-0.66691406 5.55316406 -0.77132812 4.54382813 -0.87890625 3.50390625 C-0.91886719 2.67761719 -0.95882812 1.85132813 -1 1 C-0.67 0.67 -0.34 0.34 0 0 Z " fill="#69199C" transform="translate(219,284)"/>
<path d="M0 0 C0.99 0 1.98 0 3 0 C4 3 4 3 3.0625 5.1875 C2.5365625 6.0846875 2.5365625 6.0846875 2 7 C1.01 7 0.02 7 -1 7 C-0.67 4.69 -0.34 2.38 0 0 Z " fill="#8C1BCA" transform="translate(217,268)"/>
<path d="M0 0 C-1.98 0.66 -3.96 1.32 -6 2 C-6 2.66 -6 3.32 -6 4 C-6.66 4 -7.32 4 -8 4 C-8.33 4.66 -8.66 5.32 -9 6 C-9 4.02 -9 2.04 -9 0 C-5.62182575 -0.84454356 -3.32534757 -1.10844919 0 0 Z " fill="#681DA5" transform="translate(279,235)"/>
<path d="M0 0 C-1.25 1.5 -1.25 1.5 -3 3 C-4.32 3 -5.64 3 -7 3 C-7 3.66 -7 4.32 -7 5 C-7.99 5 -8.98 5 -10 5 C-7.62417533 -0.26075462 -5.61350876 -0.1220328 0 0 Z " fill="#A423B0" transform="translate(188,218)"/>
<path d="M0 0 C-0.33 1.98 -0.66 3.96 -1 6 C-2.65 6 -4.3 6 -6 6 C-6 3 -6 3 -5 1 C-2 0 -2 0 0 0 Z " fill="#771DE6" transform="translate(316,217)"/>
<path d="M0 0 C0.66 0 1.32 0 2 0 C3.32 2.31 4.64 4.62 6 7 C0.25 6.25 0.25 6.25 -2 4 C-1.34 3.34 -0.68 2.68 0 2 C0 1.34 0 0.68 0 0 Z " fill="#5418F4" transform="translate(340,286)"/>
<path d="M0 0 C0.33 0 0.66 0 1 0 C1.05410687 1.77049689 1.09284119 3.54146849 1.125 5.3125 C1.14820313 6.29863281 1.17140625 7.28476563 1.1953125 8.30078125 C1 11 1 11 -1 14 C-1.66 13.67 -2.32 13.34 -3 13 C-2.690625 12.154375 -2.38125 11.30875 -2.0625 10.4375 C-0.98461179 6.9502146 -0.43418696 3.61822465 0 0 Z " fill="#701AE4" transform="translate(315,231)"/>
<path d="M0 0 C2.68674602 0.36307379 4.55872304 0.66904228 6.75 2.3125 C8.18466347 4.24929569 8.76772303 5.59980466 9 8 C8.34 8.66 7.68 9.32 7 10 C6.34 7.69 5.68 5.38 5 3 C4.34 3 3.68 3 3 3 C3 2.34 3 1.68 3 1 C2.01 0.67 1.02 0.34 0 0 Z " fill="#331B9A" transform="translate(415,233)"/>
<path d="M0 0 C4.29 0 8.58 0 13 0 C13 0.99 13 1.98 13 3 C11.96875 2.835 10.9375 2.67 9.875 2.5 C6.51755674 2.06678152 3.37663843 1.91764297 0 2 C0 1.34 0 0.68 0 0 Z " fill="#F14EA1" transform="translate(78,180)"/>
<path d="M0 0 C1.65 0.33 3.3 0.66 5 1 C3.37660195 2.70884005 1.70680947 4.37446717 0 6 C-0.66 6 -1.32 6 -2 6 C-2 4.68 -2 3.36 -2 2 C-1.34 2 -0.68 2 0 2 C0 1.34 0 0.68 0 0 Z " fill="#751AAD" transform="translate(212,287)"/>
<path d="M0 0 C0 0.66 0 1.32 0 2 C-3.06533164 3.53266582 -6.26754272 3.10276471 -9.625 3.0625 C-10.33140625 3.05798828 -11.0378125 3.05347656 -11.765625 3.04882812 C-13.51045275 3.03703875 -15.255237 3.01910324 -17 3 C-17 2.67 -17 2.34 -17 2 C-16.15695312 1.93941406 -15.31390625 1.87882812 -14.4453125 1.81640625 C-13.34960938 1.73261719 -12.25390625 1.64882813 -11.125 1.5625 C-10.03445313 1.48128906 -8.94390625 1.40007812 -7.8203125 1.31640625 C-4.81774102 0.97955266 -3.05142118 0 0 0 Z " fill="#37188A" transform="translate(342,279)"/>
<path d="M0 0 C1.32 0.33 2.64 0.66 4 1 C4.33 2.98 4.66 4.96 5 7 C2.525 6.01 2.525 6.01 0 5 C0 3.35 0 1.7 0 0 Z " fill="#5217F5" transform="translate(346,277)"/>
<path d="M0 0 C0.53625 0.61875 1.0725 1.2375 1.625 1.875 C4.31103023 4.2782902 6.55414562 5.06022153 10 6 C10 6.33 10 6.66 10 7 C3.56461405 7.36426713 3.56461405 7.36426713 1.0625 5.75 C0 4 0 4 0 0 Z " fill="#461DA5" transform="translate(315,274)"/>
<path d="M0 0 C0.66 0 1.32 0 2 0 C2.66 1.65 3.32 3.3 4 5 C3.34 5.66 2.68 6.32 2 7 C1.67 6.34 1.34 5.68 1 5 C0.01 5.33 -0.98 5.66 -2 6 C-1.34 4.02 -0.68 2.04 0 0 Z " fill="#A816E9" transform="translate(220,241)"/>
<path d="M0 0 C0.66 0 1.32 0 2 0 C2 0.66 2 1.32 2 2 C2.61875 2.309375 3.2375 2.61875 3.875 2.9375 C5.25 3.625 6.625 4.3125 8 5 C7.67 5.66 7.34 6.32 7 7 C4.69 6.01 2.38 5.02 0 4 C0 2.68 0 1.36 0 0 Z " fill="#3E1EAC" transform="translate(429,218)"/>
<path d="M0 0 C0.33 0.66 0.66 1.32 1 2 C2.32 2 3.64 2 5 2 C5 2.66 5 3.32 5 4 C6.32 4.33 7.64 4.66 9 5 C6.03 5 3.06 5 0 5 C0 3.35 0 1.7 0 0 Z " fill="#BF17DF" transform="translate(139,288)"/>
<path d="M0 0 C0.66 0.33 1.32 0.66 2 1 C1.2884375 2.0828125 1.2884375 2.0828125 0.5625 3.1875 C-0.94152903 5.89475226 -1.56599182 7.96194275 -2 11 C-2.33 11 -2.66 11 -3 11 C-3.36923077 3.49230769 -3.36923077 3.49230769 -1.5 1 C-1.005 0.67 -0.51 0.34 0 0 Z " fill="#6D1FB3" transform="translate(268,241)"/>
<path d="M0 0 C0.66 0 1.32 0 2 0 C0.125 4.75 0.125 4.75 -1 7 C-1.66 7 -2.32 7 -3 7 C-3.33 5.68 -3.66 4.36 -4 3 C-3.01 3 -2.02 3 -1 3 C-0.67 2.01 -0.34 1.02 0 0 Z " fill="#3D1CA9" transform="translate(360,281)"/>
<path d="M0 0 C0.66 0 1.32 0 2 0 C2 0.99 2 1.98 2 3 C2.99 3.33 3.98 3.66 5 4 C5 5.65 5 7.3 5 9 C1.7457985 6.16569547 0.4793247 4.31392226 0 0 Z " fill="#6D1986" transform="translate(166,280)"/>
<path d="M0 0 C0 0.66 0 1.32 0 2 C-1.32 2.33 -2.64 2.66 -4 3 C-4 3.66 -4 4.32 -4 5 C-5.65 5 -7.3 5 -9 5 C-4.16129032 0 -4.16129032 0 0 0 Z " fill="#791B89" transform="translate(180,252)"/>
<path d="M0 0 C1.32 0.33 2.64 0.66 4 1 C4 3.31 4 5.62 4 8 C3.34 8 2.68 8 2 8 C1.34 5.36 0.68 2.72 0 0 Z " fill="#8720A8" transform="translate(216,234)"/>
<path d="M0 0 C1.65 0.33 3.3 0.66 5 1 C3.35 2.65 1.7 4.3 0 6 C-0.66 5.01 -1.32 4.02 -2 3 C-1.34 2.01 -0.68 1.02 0 0 Z " fill="#A62887" transform="translate(110,233)"/>
<path d="M0 0 C2.31 0 4.62 0 7 0 C6.01 0.495 6.01 0.495 5 1 C4.67 1.99 4.34 2.98 4 4 C3.01 4.33 2.02 4.66 1 5 C0.67 3.35 0.34 1.7 0 0 Z " fill="#431FBC" transform="translate(395,232)"/>
<path d="M0 0 C1.875 0.25 1.875 0.25 4 1 C5.3125 2.8125 5.3125 2.8125 6 5 C5.54296875 7.13671875 5.54296875 7.13671875 5 9 C4.16396622 7.68921847 3.3312426 6.37632511 2.5 5.0625 C2.0359375 4.33160156 1.571875 3.60070312 1.09375 2.84765625 C0 1 0 1 0 0 Z " fill="#A922A7" transform="translate(150,228)"/>
<path d="M0 0 C1.32 0 2.64 0 4 0 C4 0.66 4 1.32 4 2 C3.34 2 2.68 2 2 2 C1.67 5.3 1.34 8.6 1 12 C0.67 12 0.34 12 0 12 C0 8.04 0 4.08 0 0 Z " fill="#5F1AE6" transform="translate(373,189)"/>
<path d="M0 0 C1.65 0.33 3.3 0.66 5 1 C5 1.99 5 2.98 5 4 C3.02 4 1.04 4 -1 4 C-0.67 2.68 -0.34 1.36 0 0 Z " fill="#7A16ED" transform="translate(259,289)"/>
<path d="M0 0 C0 3.11227195 -0.45627049 5.94152152 -1 9 C-1.99 9 -2.98 9 -4 9 C-3.46930939 5.17902761 -2.50298434 2.93828597 0 0 Z " fill="#801B92" transform="translate(170,257)"/>
<path d="M0 0 C0.66 0 1.32 0 2 0 C2 0.66 2 1.32 2 2 C2.66 2 3.32 2 4 2 C3.67 3.98 3.34 5.96 3 8 C2.34 8 1.68 8 1 8 C0.67 5.36 0.34 2.72 0 0 Z " fill="#BC26A3" transform="translate(102,276)"/>
<path d="M0 0 C2 1 4 2 6 3 C6 3.99 6 4.98 6 6 C5.34 6 4.68 6 4 6 C4 5.34 4 4.68 4 4 C3.01 4 2.02 4 1 4 C0.67 2.68 0.34 1.36 0 0 Z " fill="#961DD7" transform="translate(212,282)"/>
<path d="M0 0 C0.33 0.99 0.66 1.98 1 3 C0.34 3 -0.32 3 -1 3 C-1.33 4.32 -1.66 5.64 -2 7 C-3.32 6.67 -4.64 6.34 -6 6 C-4.68 5.34 -3.36 4.68 -2 4 C-2 3.34 -2 2.68 -2 2 C-1.34 2 -0.68 2 0 2 C0 1.34 0 0.68 0 0 Z " fill="#721F9C" transform="translate(215,272)"/>
<path d="M0 0 C0.99 0.33 1.98 0.66 3 1 C1.515 4.465 1.515 4.465 0 8 C-0.66 7.67 -1.32 7.34 -2 7 C-1.34 4.69 -0.68 2.38 0 0 Z " fill="#852497" transform="translate(187,235)"/>
</svg>
