<?xml version="1.0" encoding="UTF-8"?>
<svg width="24" height="24" viewBox="0 0 24 24" xmlns="http://www.w3.org/2000/svg" aria-hidden="true" role="img">
  <title>GitHub (Cosmic Gradient)</title>
  <defs>
    <linearGradient id="cosmic" x1="0%" y1="0%" x2="100%" y2="0%">
      <stop offset="0%" stop-color="#89253E"/>
      <stop offset="100%" stop-color="#3A6186"/>
    </linearGradient>
  </defs>
  <path d="M12 .297a12 12 0 0 0-3.79 23.39c.6.11.82-.26.82-.58 0-.29-.01-1.05-.02-2.06-3.34.73-4.04-1.61-4.04-1.61-.55-1.39-1.34-1.76-1.34-1.76-1.09-.75.08-.74.08-.74 1.2.08 1.83 1.23 1.83 1.23 1.07 1.83 2.8 1.3 3.49.99.11-.78.42-1.3.76-1.6-2.67-.3-5.47-1.34-5.47-5.95 0-1.31.47-2.38 1.24-3.22-.12-.3-.54-1.52.12-3.18 0 0 1.01-.32 3.3 1.23a11.5 11.5 0 0 1 6 0c2.28-1.55 3.29-1.23 3.29-1.23 .66 1.66.24 2.88.12 3.18.77.84 1.23 1.91 1.23 3.22 0 4.62-2.8 5.65-5.48 5.95 .43.37.81 1.1.81 2.22 0 1.6-.02 2.88-.02 3.27 0 .32.22.69.83.57A12 12 0 0 0 12 .297z" fill="url(#cosmic)"/>
</svg>
